<svg enable-background="new 0 0 208.5 248.1" height="344.884492" viewBox="0 0 208.5 248.1" width="289.952151" xmlns="http://www.w3.org/2000/svg"><path d="m59.29 27.33c-1.36-4.36-2.72-8.72-4.1-13.08-.14-.45-.17-.64.32-.91 5.33-3.01 10.94-5.34 16.73-7.28 1.22-.41 1.51.4 1.83 1.17 1.48 3.57 2.98 7.14 4.37 10.74.27.7.56.69 1.07.53 4.66-1.44 9.41-2.4 14.25-2.92.58-.06.67-.31.64-.77-.18-2.91.45-5.81.26-8.71-.09-1.42.34-2.79.29-4.19-.02-.5.25-.52.66-.61 1.39-.3 2.8-.15 4.19-.28 3.03-.28 6.04.09 9.06.04 1.21-.02 2.43.16 3.64.26.85.07.74.85.79 1.32.34 2.95.57 5.91.87 8.87.1.94.27 1.86.29 2.82.03 1.38 1.14 1.42 2.16 1.54 1.49.17 2.98.34 4.42.79.39.38.93-.01 1.34.27 2.41.25 4.69 1.02 6.99 1.72.84.25 1.15.03 1.41-.64 1.41-3.6 2.84-7.2 4.2-10.82.36-.97.69-1.35 1.85-.96 5.41 1.87 10.6 4.21 15.66 6.87.94.49 1.28.93.89 2.03-1.27 3.56-2.39 7.17-3.64 10.74-.38 1.09-.84 1.69.84 2.3 1.87.68 3.47 2.15 5.13 3.35 1.63 1.18 3.23 2.41 4.77 3.7.62.52.95.4 1.48-.08 3.2-2.94 6.44-5.85 9.64-8.75 2.96 2.38 5.59 5.16 8.25 7.9 1.4 1.45 2.59 3.1 3.86 4.68.31.38.24.7-.11 1.13-2.58 3.16-5.11 6.36-7.64 9.57-.41.52-.54.9.01 1.63 2.63 3.54 5.1 7.2 7.09 11.15.4.79.94.65 1.56.46 3.78-1.16 7.57-2.29 11.32-3.51.73-.24 1.05-.17 1.37.51 1.59 3.29 3.24 6.56 4.3 10.06.62 2.03 1.52 3.95 2.02 6.03.16.7-.12.77-.47.96-3.65 1.96-7.31 3.91-10.98 5.84-.6.32-.69.57-.5 1.33.94 3.76 1.74 7.55 2.51 11.35.21 1.04.75 1.44 1.74 1.59 3.58.53 7.15 1.14 10.73 1.66 1.16.17 1.52.93 1.51 1.89 0 3.5.64 7.01.23 10.49-.23 1.93.01 3.88-.45 5.79-.14.59-.3.74-.84.73-3.5-.07-6.99.4-10.5.28-2.29-.08-2.17.52-2.43 2.11-.53 3.25-1.18 6.49-1.78 9.73-.2 1.09-.45 2.18-.64 3.28-.09.48.06.82.58 1.06 3.8 1.76 7.58 3.57 11.35 5.36-1.83 5.83-4.12 11.51-6.71 17.08-.35.74-.66.8-1.35.59-3.48-1.05-6.98-2.05-10.47-3.08 0-.52-1.48-.18-.67-1.16.28-.13.58-.16.89-.16-.41-.02-.8.02-1.11.33-1.6.21-2.24 1.36-2.67 2.72-.97 2.42-2.72 4.38-4.04 6.58-.44.73-.91 1.47-1.52 2.04-.69.64-.37 1.11.05 1.59 1.65 1.86 3.32 3.71 4.98 5.55.97 1.08 1.94 2.15 2.94 3.2.55.58.57 1.08.06 1.72-1.83 2.3-3.72 4.54-5.82 6.6-2.14 2.11-4.18 4.31-6.48 6.25-.5.42-.72.43-1.21-.01-2.57-2.27-5.18-4.48-7.78-6.72-.62-.53-1.26-1.02-1.84-1.59-.43-.42-.66-.21-1.01.08-3.24 2.68-6.69 5.09-10.3 7.24-.82.49-1.03.87-.7 1.81 1.3 3.69 2.47 7.43 3.75 11.12.28.79.24 1.22-.55 1.66-3.43 1.92-7.01 3.49-10.66 4.92-1.61.63-3.24 1.21-4.87 1.8-.42.15-.81.37-1.13-.24-1.61-3.07-3.51-6-4.9-9.19-.24-.43-.48-.86-.67-1.32-.72-1.77-.72-1.77-2.59-1.16-3.2 1.09-6.53 1.62-9.86 2.15-.75.12-1.48.44-2.27.3-.45-.08-.47.25-.51.6-.16 1.56-.4 3.12-.53 4.68-.22 2.56-.43 5.13-.54 7.7-.05 1.24-.83 1.54-1.75 1.52-2.64-.06-5.3.47-7.89.21-2.8-.28-5.61.13-8.4-.42-.8-.16-.93-.39-.91-1.08.08-4.01-.45-8-.26-12.01.04-.72-.07-1.17-1-1.24-4.11-.32-8.13-1.15-12.09-2.27-2.27-.64-2.21-.67-3.15 1.58-1.41 3.37-2.89 6.7-4.35 10.05-.22.51-.54.56-1.09.42-2.47-.63-4.82-1.6-7.15-2.56-3-1.23-6-2.51-8.8-4.19-.52-.31-.83-.45-.59-1.29 1.16-3.93 2.54-7.78 3.85-11.66.25-.73.21-1.13-.56-1.55-3.72-2.06-7.22-4.45-10.48-7.18-.43-.36-.77-.55-1.34-.04-2.31 2.04-4.59 4.12-6.79 6.27-.37.36-.63.93-1.28.93-.99.38-1.89 1.29-3.08.54-4.16-3.4-7.75-7.36-11.24-11.42-.37-.44-.47-.8-.04-1.35 2.25-2.9 4.44-5.84 6.66-8.77.05-.07.13-.13.19-.2 1.42-1.63 1.43-1.64.13-3.3-2.32-2.96-4.34-6.11-6.13-9.42-.27-.51-.49-.62-1.09-.4-3.8 1.37-7.64 2.63-11.43 4.02-.86.31-1.14.15-1.53-.63-2.62-5.28-4.75-10.74-6.76-16.27-.26-.71.18-.73.54-.92 2.73-1.43 5.46-2.85 8.2-4.26.4-.21.8-.37 1.16-.67.67-.55 1.92-.51 2.11-1.4.16-.74-.29-1.63-.52-2.44-.99-3.58-1.68-7.21-2.15-10.89-.11-.86-.38-1.32-1.48-1.39-3-.18-6-.17-9-.25-.98-.03-1.96-.33-2.96-.25-.42.03-.47-.19-.56-.56-.46-1.77-.35-3.59-.47-5.38-.2-3.19-.04-6.39-.07-9.59-.01-1 .36-1.95.32-2.96-.03-.6.61-.66 1.1-.71 3.9-.37 7.79-.74 11.69-1.1.69-.06 1.1-.39 1.15-1.09.29-4.34 1.2-8.57 2.2-12.79.15-.62.03-.92-.64-1.25-3.57-1.76-7.08-3.63-10.62-5.43-.64-.33-.93-.6-.68-1.42 1.66-5.45 3.8-10.72 6.08-15.93.28-.63.53-.84 1.33-.58 3.83 1.27 7.7 2.44 11.56 3.61.4.12.83.27 1.14-.33 2.11-4.04 4.63-7.83 7.24-11.55.28-.4.46-.58.02-1.06-2.01-2.19-3.95-4.46-5.92-6.69-.84-.95-1.66-1.92-2.55-2.81-.48-.48-.17-.82.08-1.13 1.16-1.39 2.31-2.78 3.54-4.09 2.27-2.42 4.57-4.82 6.9-7.18 2.08-2.12 2.17-2.05 4.44-.1 2.66 2.29 5.4 4.48 8.07 6.75.48.41.67.13 1-.14 2.7-2.2 5.52-4.25 8.4-6.21.17-.12.4-.16.6-.24 1.17-.21 1.9-1.07 2.8-1.66z" fill="#18487f"/><path d="m104.27 246.21c-32.4 0-64.79-.01-97.19.03-1.25 0-1.56-.31-1.55-1.55.07-6.49.06-12.98 0-19.47-.01-1.07.3-1.25 1.3-1.25 65.07.02 130.14.02 195.2-.01 1.02 0 1.28.25 1.28 1.28-.05 6.53-.06 13.07 0 19.6.01 1.18-.34 1.39-1.44 1.39-32.53-.03-65.06-.02-97.6-.02z" fill="#18487f"/><path d="m202.06 248.72c-.06-.49.67-.37 1-.23.65.28.11.4-.12.56" fill="#fbfbfb"/><path d="m184.36 152.97c-.04.39.22.38.49.43.33.06.6.22.34.62-2.01-1.11-2.67.55-3.56 1.73.09-1.97.85-2.75 2.73-2.78z" fill="#174574"/><path d="m127.34 197.7c1.86-1.29 2.14-1.19 2.75.95.15.52.34 1.02.51 1.53-.48-.17-.64-.65-.75-1.03-.4-1.32-1.14-1.89-2.51-1.45z" fill="#18466f"/><path d="m36.52 189.18c.68-.31 1.81.7 2.12-.84.09-.43.54.47.96.3-.08.11-.14.23-.23.32-1.3 1.34-1.3 1.34-2.85.22z" fill="#184772"/><path d="m59.29 27.33c-.71.89-1.39 1.85-2.75 1.66.88-.62 1.67-1.38 2.75-1.66z" fill="#19456c"/><path d="m122.39 16.92c-.46-.03-.98.23-1.34-.27.44.13.98-.24 1.34.27z" fill="#274357"/><g fill="#fefefe"><path d="m55.49 61.34c3.99-4.53 8.66-8.23 13.86-11.27 4.32-2.52 8.8-4.7 13.57-6.24 3.94-1.27 7.95-2.18 12.05-2.8 3.05-.46 6.12-.71 9.16-.7 7.33.03 14.56.97 21.55 3.36.25.08.52.1.78.14.93.33 2.08.07 2.77 1.04 4.77 1.99 9.39 4.27 13.67 7.18 3.53 2.4 6.87 5.03 10.14 8.34-8.08-3.05-15.31-.97-22.45 2.05-.94.77-2.11 1.06-3.17 1.57-7.79 3.69-15 8.32-21.87 13.49-1.69 1.27-1.74 1.26-3.43.03-3.32-2.41-6.65-4.83-10.2-6.91-.9-.53-1.44-1.22-1.82-2.25-.93-2.53-2.96-3.96-5.46-4.76-.57-.18-1.16-.24-1.74-.36-.53-.2-1.06-.12-1.58.07-1.47.63-2.85.4-4.33-.19-4.76-1.88-9.64-3.29-14.84-3.03-.54.03-1.09.03-1.63.14-.49.1-1 .11-1.48.27-.98.17-1.99.18-2.82.87-.19.18-.5.22-.73-.04z"/><path d="m130.36 63.58c3.5-1.26 7-2.57 10.68-3.16 4.26-.68 8.47-.83 12.28 1.76 1.18.8 1.93 1.95 2.75 3.05.72.46.9 1.24 1.12 1.98.92 3.05.78 6.14.21 9.23-.91 4.89-2.73 9.47-4.87 13.93-.36.74-.88 1-1.67.77-.96-.28-1.91-.61-2.86-.94-.54-.22-1.09-.4-1.65-.55-8.93-2.55-18.02-4.21-27.29-4.9-2.54-.19-5.09-.4-7.64-.52-.32-.02-.68.02-.94-.16-1.98-1.31-3.77-2.86-5.5-4.48-.35-.32-.26-.75.05-1.11.18-.21.39-.39.61-.55 7.17-5.38 14.66-10.24 22.89-13.89.6-.27 1.19-.46 1.83-.46z"/><path d="m151.42 156.52c-2.14 3.25-5.33 4.47-9.05 4.67-4.21.23-8.24-.75-12.2-2.02-.31-.1-.6-.16-.9-.18-2.13-.37-4.07-1.31-6-2.2-4.97-2.3-9.73-5-14.29-8.04-.6-.4-1.23-.78-1.48-1.54-.23-.7-.95-.36-1.41-.59-.22-.07-.43-.17-.61-.31-.32-.25-.77-.47-.61-.95.13-.39.59-.42.94-.4.96.07 1.41-.36 1.54-1.3.08-.56.52-.95.97-1.28 2.31-1.71 4.61-3.47 6.64-5.49 1.81-1.8 3.93-2.27 6.3-2.38 2.05-.1 4.08-.38 6.1-.71.65-.14 1.32-.05 1.96-.29 5.38-.79 10.7-1.86 15.92-3.4 2.08-.62 2.21-.58 3.16 1.39 2.45 5.08 4.4 10.33 5 15.99.28 2.67.05 5.29-.98 7.8-.22.5-.43 1-1 1.23z"/><path d="m52.76 65.77c1.2-1.9 2.86-3.23 4.92-4.08 1.09-1.11 2.58-1.02 3.94-1.2 1.25-.17 2.53-.14 3.8.03.57.18 1.17.22 1.76.23 3.51.62 6.91 1.64 10.23 2.93.87.34 1.38.74 1.24 1.79-.15 1.15.37 2.16 1.12 2.99 1.99 2.22 4.45 3.43 7.5 3.22.84-.06 1.59-.37 2.27-.86.48-.34 1-.48 1.53-.17 3.8 2.26 7.55 4.59 10.89 7.51.28.59.53 1.15-.29 1.55-.46.23-.33.79-.57 1.15-.98 1.16-2.19 2.08-3.41 2.94-1.06.75-2.45.62-3.72.69-12.23.64-24.2 2.66-35.79 6.69-.6.21-1.2.54-1.8.02-2.17-3.79-3.55-7.87-4.64-12.08-.72-2.77-.89-5.58-.74-8.41.11-1.79.68-3.46 1.76-4.94z"/><path d="m168.72 103.09c.7 1.59 1.72 3.03 2.05 4.82.22 1.22.07 2.41.14 3.62.1 1.7-.76 3.04-1.63 4.37-1.29 1.97-2.99 3.54-4.85 4.95-.62.47-1.28.67-2.05.42-2.03-.66-3.96-.25-5.82.63-2.37 1.07-3.83 2.91-4.52 5.4-1.05.57-2.21.81-3.3 1.29-.76.33-1.32.1-1.67-.66-.54-1.15-1.24-2.22-1.84-3.35-1.8-3.23-3.88-6.29-6.01-9.3-1.18-1.68-1.21-1.88.02-3.44 4.32-5.49 8.29-11.23 11.64-17.37.22-.4.49-.77.71-1.17.41-.76 1-1.01 1.82-.68 4.97 2.02 9.7 4.46 13.66 8.17.67.64.99 1.6 1.65 2.3z"/><path d="m127.6 159.5c5.37 2.1 10.9 3.24 16.7 2.78 1.04-.22 1.1-.19 1.12.52-3.88 3.12-8.19 5.48-12.72 7.51-2.4 1.07-4.83 2-7.32 2.83-.25.08-.52.1-.78.14-.44.07-.89.05-1.32.21-1.51.54-2.4-.69-3.51-1.27-.26-.14-.07-.41.01-.61.14-.32.23-.63-.24-.75-1.33-.33-1.33-1.44-1.45-2.48.03-.14.09-.26.17-.38.62-.62 1.28-1.11 2.25-1.08.59.02.77-.35.47-.93-.47-.89-.99-1.67-2.17-1.54-2.42.27-4.84.11-7.26.12-5.94.02-11.88.01-17.82.01-1.14 0-2.27-.03-3.41-.22-1.58-.26-2.32.38-2.27 1.78.04.13.07.27.1.41.12.24-.04.76.5.59 1.75-.55 3.54-.23 5.3-.25 6.89-.08 13.78-.03 20.67-.03.64 0 1.28 0 1.91.12.26.05.6.05.64.39.04.38-.27.54-.58.65-.39.14-.81.12-1.22.12-8.39 0-16.79.02-25.25-.01-.11.29.28.55.24.9-.03.23-.07.45-.11.67-.14.8-2.08-.47-1.39 1.18.47 1.13-.73 1.29-1.04 1.95-.36.77-1.1 1.01-1.96.58-.4-.2-.83-.39-1.29-.42-.73-.05-1.28-.3-1.62-1.02-.31-.65-.85-.86-1.6-.56-1.2.48-2.08-.09-2.36-1.36-.19-.88-.91-.53-1.26-.27-.62.46-1.09.48-1.47-.18-.39-.68-.83-.31-1.28-.15-3.97-1.62-7.47-4.05-10.95-6.49-.87-.61-1.64-1.33-2.46-2.01.38-.42.85-.27 1.28-.16 4.79 1.25 9.44.38 14.03-.96 4.13-1.21 8.08-2.89 11.91-4.85.49-.25.97-.52 1.52-.62.39-.08.67.26.99.31.81.12 1.87.61 2.01-.91.03-.38.31-.84.84-.34.12.13-.06-.01.06.12.1.1.19.22.32.22.1 0 .07-.06-.08-.06-.09 0-.17-.07-.24-.13-.2-.39-.09-.75.11-1.1.09-.1.19-.17.32-.22.48-.03.96.19 1.46-.09.38-.21.82-.13 1.1.26.25.35.07.59-.29.74.41.44.36 1.02.5 1.54.09.35.49.32.82.17.74-.34.93-.02.98.71.11 1.43.2 2.8-.06 4.28-.16.92-.15 2.23.25 3.31.16.43.55.43.92.43 2.69.02 5.38.01 8.07.01.48 0 .72-.11.74-.69.02-.64.07-1.28-.02-1.9-.1-.6-.54-1.14.16-1.73.17-.15.31-.97-.4-1.31-.58-.28-.48-.86-.08-1.26.33-.33.69-.6.75-1.09.04-.35.87-.55.08-1.12-.32-.23.36-.93.63-1.38.2-.33.53-.08.81-.08.96-.01 1.44.43 2.16 1.07.86.76 2.44.9 3.76.28.52-.03.98.19 1.4.45 2.53 1.51 5.25 2.64 7.96 3.77.45.19.96.37 1.26.88z"/><path d="m38.79 113.18c-1.19-3.41-.41-6.55 1.34-9.54 1.26-2.46 3.37-4.1 5.53-5.68 2.46-1.81 5.2-3.14 7.93-4.48.2-.1.4-.21.6-.31 1.67-.86 2.2-.69 3.12.97 2.32 4.61 5.23 8.86 8.16 13.08 1.19 1.72 2.41 3.43 3.78 5.02.76.89.71 1.63.03 2.54-1.56 2.07-3 4.23-4.3 6.49-1.33 2.02-2.46 4.16-3.65 6.26-.39.7-.84 1.02-1.65.74-6.63-2.31-13.01-5.09-18.04-10.2-1.36-1.38-2.52-2.9-2.85-4.89z"/><path d="m61.25 159.52c-4.55-2.4-5.79-6.5-5.77-11.24 0-.32-.11-.62.42-.82 2.63-1 3.76-3.26 4.48-5.76.44-1.52.48-3.09.04-4.65-.2-.72-.43-1.35-1.19-1.66-.31-.13-.5-.38-.45-.75.11-1.64 1.06-2.97 1.68-4.42.48-1.12 1.44-.71 2.26-.47 3.41 1.03 6.87 1.88 10.36 2.59 5.01 1.02 10.07 1.76 15.16 2.2 1.5.13 2.76.65 3.9 1.74 2.31 2.21 4.85 4.15 7.36 6.14.39.31.94.57 1.05 1.05.25 1.02.74 1.55 1.84 1.6.65.03.66.51.25.96-.09.1-.2.19-.32.26-7.5 5.13-15.26 9.78-23.95 12.66-3.09 1.03-6.24 1.83-9.49 2.01-2.62.13-5.3.19-7.63-1.44z"/></g><path d="m61.25 159.52c4.71 1.81 9.44 1.15 14.12-.06 4.54-1.17 8.85-3 13-5.15 3.76-1.94 7.44-4.03 10.93-6.43.34-.23 1-.33.88-1.04-.08-.48.31-.5.63-.45.86.13 1.38-.44 2.32-1.1-.74 0-1.12-.05-1.49.01-.94.14-1.38-.18-1.2-1.17.09-.47-.2-.66-.54-.94-3-2.44-6.14-4.72-8.88-7.46-.74-.73-1.76-.76-2.63-.82-8.05-.61-15.93-2.15-23.73-4.16-.94-.24-1.93-.44-2.79-.86-.76-.37-.93.04-1.16.53-.65 1.4-1.28 2.8-1.92 4.21-.06-.73-.5-.45-.87-.33-.43-1.25.49-2.16.88-3.17.65-1.7.73-1.67-.98-2.3-4.87-1.78-9.53-3.95-13.71-7.08-2.37-1.77-4.37-3.87-5.87-6.43-.24-.55-.69-1.06-.43-1.73l.15-.15c.43.37.57-.16.85-.27 3.11 6.66 9.21 9.71 15.39 12.6 1.76.82 3.63 1.41 5.45 2.12.62.24.95.23 1.37-.5 1.22-2.1 2.18-4.37 3.76-6.26.68-.3.77.17.85.65-.46 1.94-1.86 3.4-2.68 5.17-.64 1.39-.66 1.44.85 1.93 2.55.82 5.22 1.2 7.76 2.08.42.29.9.24 1.37.24 1.45.2 2.87.52 4.3.81.44.3.94.3 1.45.27 2.13.13 4.25.39 6.33.86.58.3 1.22.26 1.85.26.41.01.82 0 1.27.1-2.02-1.44-3.58-3.29-5.29-5-.26-.26-.44-.59-.4-.99.15-.56.56-.63 1.05-.57.7.19 1.13.75 1.62 1.22 1.66 1.57 3.14 3.32 4.94 4.73.47.37.96.68 1.59.74 2.68.26 5.37.29 8.06.37.32.01.68.05.85-.29.47-.91 1.29-.88 2.13-.88 1.05.01 2.1-.01 3.15.01.51.01 1.07.01 1.34.51.51.94 1.28.87 2.13.66 2.33-.24 4.68.1 7-.35.45-.09.89-.1 1.25-.43.15-.14.31-.28.47-.41.46-.38.85-.83 1.32-1.19.76-.41 1.19-1.32 2.15-1.43.5.03.82.24.8.79-.35.98-1.45 1.34-1.96 2.36 3.48-.13 6.81-.89 10.2-1.08.48.01.96.04 1.39-.22 3.26-.85 6.6-1.33 9.86-2.23 1.05-.29 2.1-.6 3.16-.86.91-.23 1.05-.71.63-1.51-.4-.75-1.02-1.42-1.01-2.36.11-.47.18-.98.89-.69.62 1.07 1.38 2.08 1.83 3.21.38.97.94.85 1.56.57 1.02-.46 2.03-.88 3.14-1.05 1.39.4 2.04 1.1 2.15 2.31-.38.17-.7 0-1.03-.16-.42-.2-.59-.92-1.24-.64-.84.36-1.76.54-2.53 1.02-.46.29-.11.75.04 1.11.91 2.19 1.98 4.31 2.74 6.56.81 2.42 1.69 4.82 1.9 7.4 0 .55-.05 1.1.25 1.6.62 2.85.41 5.65-.44 8.43-.09.29-.33.55-.19.89.2.38-.18 1.08.89 1.06-.52.25-.81.52-1.08.49-1.18-.09-.67.5-.48 1.02.07.2.42.3.24.57-.15.22-.46.25-.61.12-.79-.69-.47.39-.87.48-.2-.64-.26-1.43.14-1.82.9-.91.21-.93-.44-1.08 1.57-3.04 1.87-6.22 1.46-9.62-.69-5.71-2.76-10.92-5.22-16.03-.36-.75-.64-.93-1.44-.67-4.4 1.45-8.95 2.3-13.49 3.19-1.14.22-2.29.47-3.48.41-.61.31-1.32-.14-1.92.27-1.79.57-3.67.6-5.51.76-1.3.11-2.57.47-3.9.34-.73-.07-.97.73-1.46 1.09-2.83 2.05-5.26 4.59-8.16 6.54-.34.23-.83.52-.72 1.07.28 1.44-.55 1.54-1.62 1.43-.31-.03-.63-.01-1.08-.01.31.64.97.72 1.31 1.14.07.05.15.12.23.13.65.13 1.49.1 1.26 1.13-.2.89-.96.54-1.56.59-1.75.15-3.51-.03-5.24.28-1.61 1.09-3.22 2.17-4.89 3.16-.51.3-1.07.46-1.61.67l.01-.01c-1.11 1.04-2.38 1.79-3.85 2.21-2.71 1.23-5.4 2.54-8.15 3.67-3.67 1.51-7.44 2.67-11.4 3.25-3.23.47-6.35.16-9.48-.56-.49-.36.4-1.03-.26-1.4z" fill="#18497f"/><path d="m153.67 144.72c-.31-2.94-1.28-5.7-2.34-8.42-.78-2.02-1.71-3.98-2.6-5.96-.25-.55-.46-.91.44-1.06.77-.12 1.51-.49 2.23-.82.61-.28 1.06-.33 1.5.31.27.4.77.59 1.27.66.49-.16.98-.06 1.48-.04 3.05.11 5.51-1.1 7.43-3.44.79-.82 1.01-1.82.84-2.9-.12-.8.09-1.41.75-1.9 2.49-1.83 4.57-4.02 6-6.78.14-.28.34-.65.68-.58.42.09.39.55.45.9.21 1.3-.45 2.48-.57 3.73-.66 1.62-.72 3.38-1.09 5.07-1 4.63-2.54 9.05-4.36 13.4-2.2 5.25-5.25 10.01-8.63 14.55-1.1 1.47-2.35 2.84-3.53 4.25-.17-.01-.73.59-.41-.22 1.01-2.53 1.04-5.16.98-7.82-.01-.46-.02-.9-.32-1.28-.23-.54.08-1.13-.2-1.65z" fill="#fefefe"/><path d="m38.42 115.13c3.01 5.01 7.73 8 12.74 10.57 2.52 1.29 5.21 2.26 7.88 3.24.96.35.85.72.5 1.42-.64 1.27-1.32 2.54-1.63 3.95-4.64.5-6.93 8.03-5.14 11.36.15.27.25.65.48.79 1.31.74 1.2 1.95 1.13 3.16-.11 1.87.47 3.6 1.16 5.56-1.69-1.18-2.64-2.74-3.73-4.14-2.94-3.78-5.45-7.84-7.49-12.17-2.6-5.54-4.52-11.29-5.63-17.33-.36-1.96-.47-3.95-1.01-5.87-.08-.06-.12-.13-.11-.21s.02-.12.04-.12c.22-.31.46-.5.81-.21z" fill="#fefefe"/><path d="m57.09 94.29c-1.05-1.7-1.04-1.7-2.96-.59-.14.08-.36.03-.54.04-.27.17-.55.15-.65-.15-.16-.48.33-.66.54-.97.23-.32.56-.5.91-.64.11-.05.22-.1.33-.15.33-.13.63-.31.86-.59.28-.24.53-.58.95-.25.21.35.49.3.82.17 6.04-2.45 12.39-3.85 18.76-5.04 3.64-.68 7.34-1.14 11.05-1.49 3.23-.31 6.47-.42 9.69-.76.28-.03.5-.07.73-.27 1.13-1.01 2.29-2 3.44-2.99.2-.3.27-.74.64-.86 1.09-.35.56-.87.18-1.38-3.45-2.68-7.07-5.12-10.81-7.37-.34-.21-.65-.44-.97-.16-1.98 1.81-4.21 1.51-6.43.69-2.42-.89-4.45-2.29-5.26-4.94-.06-.21-.19-.48-.12-.65.63-1.58-.5-1.69-1.56-2.12-3.06-1.25-6.26-2-9.46-2.75-.52-.26-1.12.06-1.64-.22-2.68-.1-5.34-.03-7.91.85.05-.22.21-.51.13-.64-.21-.32-.49-.04-.71.07-.47.23-.77.73-1.41.72-.61-.01-.22-.3-.21-.5 1.22-.21 2.2-1.2 3.53-1.09.41-.28.96.11 1.36-.27 2-.51 4.04-.37 6.04-.12 4.31.53 8.4 1.87 12.39 3.57.92.39 1.75-.61 2.71-.44.47-.16.93-.15 1.4 0 3.18.17 5.9 1.63 7.06 4.42.94 2.26 2.6 3.26 4.34 4.33 2.97 1.83 5.78 3.88 8.56 5.98.78.59 1.28.52 1.93.01 7.15-5.63 14.82-10.41 23.06-14.27.88-.41 1.74-.9 2.74-1 .27.45-.87.61-.24 1.14-9.19 4.01-17.58 9.33-25.55 15.46 1.89 1.6 3.7 3.15 5.53 4.67.15.12.42.13.63.14 3.16.19 6.33.26 9.47.58 3.83.39 7.65.86 11.44 1.54 3.6.65 7.21 1.24 10.69 2.31 1.3.4 2.71.41 3.92 1.1-.14 1.05-.98.78-1.63.88-2.63-.48-5.22-1.11-7.77-1.91-.43-.31-.92-.3-1.42-.28-1.65-.07-3.24-.4-4.82-.85-.45-.27-.95-.27-1.45-.24-2.95-.14-5.86-.73-8.81-.93-2.43-.17-4.86-.52-7.35-.44.42.5 1 .84 1.1 1.53 0 .59-.34.81-.87.81-.8-.1-1.25-.72-1.76-1.22-1.03-1.02-2.18-1.5-3.68-1.44-2.6.1-5.21.15-7.81-.01-1.92-.12-3.28.63-4.63 1.85-3.55 3.23-6.89 6.67-10.3 10.04-.51.5-.95 1.14-1.78 1.17-.15-.02-.28-.07-.4-.16-.27-.44-.08-.85.07-1.27.32-.68.88-1.15 1.39-1.66 3.24-3.24 6.42-6.53 10.08-9.67-5.22.19-10.11 1-15.04 1.4-.55-.01-1.11-.04-1.59.3-2.29.55-4.59 1.07-6.93 1.35-.61.01-1.27-.19-1.76.38-3.39 1.06-6.85 1.89-10.2 3.1-.78.28-1.3.63-1.17 1.54-.11.41-.2.91-.87.61z" fill="#18487f"/><path d="m159.12 67.98c8.65 11.99 12.69 27.32 12.55 38.68-.71-2.15-1.72-3.87-3.25-5.24-.32-.25-.72-.39-1.01-.69-3.75-3.81-8.41-6.2-13.23-8.32-1.64-.72-1.69-.86-.91-2.54 2.26-4.91 4.15-9.93 4.83-15.34.21-1.69.07-3.37.14-5.05.01-.46.03-.91-.08-1.37-.02-.13-.03-.26-.01-.39.05-.2.15-.35.36-.4.37.05.43.41.61.66z" fill="#fefefe"/><path d="m37.9 101.11c.18-4.23 1.14-8.32 2.25-12.38 1.39-5.14 3.64-9.93 6.07-14.65.1-.19.15-.41.22-.62.89-2.07 2.29-3.81 3.5-5.68.19-.29.31-.79.76-.63.49.17.36.69.28 1.07-.35 1.71-.39 3.44-.37 5.18.06 4.9 1.65 9.4 3.43 13.87.34.85.76 1.66.95 2.56-.06.76.6 1.63-.32 2.27l.01-.01c-1.26.22-2.46.55-3.18 1.76-.98.84-2.22 1.24-3.31 1.9-2.82 1.72-5.43 3.67-7.62 6.15-.21.24-.43.47-.74.58-.59.16-.48.96-1.05 1.14-.22.2-.36.61-.71.52-.47-.12-.18-.52-.15-.79.06-.74-.35-1.49-.02-2.24z" fill="#fefefe"/><path d="m158.56 69.35c.41 6.58-1.43 12.66-4.07 18.57-.38.85-.63 1.79-1.15 2.55-.61.89-.19 1.15.55 1.45 3.67 1.5 7.21 3.27 10.42 5.64 1.52 1.12 3.01 2.27 4.11 3.85-.44.07-.56.28-.26.64.26.31.6.57.56 1.04-1.97-2.22-4.16-4.18-6.68-5.76-2.76-1.73-5.71-3.1-8.68-4.42-.8-.35-1.14-.15-1.54.59-3.24 6.06-7.11 11.73-11.21 17.23-.37.5-.76 1.08-1.21 1.44-1.31 1.04-.68 1.86.02 2.85 2.17 3.04 4.33 6.08 6.04 9.41-.58.03-.59.45-.6.87-.72-.07-.9-.71-1.19-1.19-1.86-3.09-3.88-6.07-6.05-9.1-1.53 1.72-2.96 3.41-4.42 5.07-3.2 3.63-6.57 7.1-10.03 10.47-.29.28-.56.62-1.05.51-.03-.58-.45-.58-.87-.59-.03-.71.42-1.01 1.02-1.19.48.09.63-.14.55-.59.16-.67.7-1.06 1.15-1.49 3.95-3.8 7.6-7.86 11.16-12.02 1.42-1.67 1.48-1.7.13-3.43-3.29-4.19-6.68-8.31-10.35-12.18-2.04-2.15-4.05-4.32-6.16-6.41-1.56-1.54-3.31-2.86-4.78-4.49-.26-.29-.71-.45-.67-.96.42-.01.84-.01.87-.59 1 .07 1.61.8 2.24 1.42 7.06 6.88 14.03 13.86 19.94 21.79.16.22.38.4.52.63.56.91 1.06.75 1.65-.01 4.25-5.5 8.22-11.19 11.5-17.33.72-1.34.66-1.36-.79-1.9-.9-.33-1.86-.47-2.69-.97-.07-.1-.1-.22-.06-.34.36-.34.88-.25 1.27-.5.05-.02.11-.04.16-.06 1.13.1 2.14.62 3.19.97.55.18.79.17 1.03-.37 1.79-4.11 3.59-8.2 4.58-12.62.96-4.3 1.19-8.48-.63-12.61.45-.17.13-.79.7-1.04.41 1.01 1.06 1.78 2.13 2.22.67.28.33 1.01.2 1.57-.19-.19-.39-.37-.58-.56-.14-.1-.25-.21-.3-.38-.04.23-.05.45.04.67.03.09.05.18.08.27.22.44-.06.95.21 1.38z" fill="#18497d"/><path d="m87.86 166.39c-.61-1.5-.06-2.35 1.71-2.42.94-.04 1.89.23 2.84.23 8.23.02 16.45.01 24.68.01.5 0 1-.06 1.49-.12 1.38-.17 3.14 1.15 3.21 2.51.05.94-.91.47-1.29.78-.31.24-1.46-.77-.98.64.07.21-.24.22-.38.07-.45-.49-.59.17-.89.23-.85.17-1.72.18-2.58.17-7.39 0-14.78 0-22.18 0-2.5 0-2.5 0-3.11 2.68 9.18.06 18.34-.02 27.48.04 1.09-.14.05-.6.13-.89-.15-.7-.74-1.46.27-2.01.43.91.14 2.42 1.88 2.27.05 0 .13.2.17.31.86 2.29.86 2.28 3.79 2.2.17 0 .34.12.5.19-.65.23-1.3.48-1.97.68-.88.27-1.79.75-2.28-.63-.19-.53-.79-.62-1.39-.62-9.68.02-19.37.02-29.05 0-.67 0-1.37.07-1.7.63-.52.88-1.09.74-1.9.5-3.8-1.12-7.51-2.44-11.09-4.14-.11-.05-.2-.16-.3-.24.25-.41.3-1.06.93-1.06.68.01.34.74.61 1.07.17.21.25.52.6.45.32-.07.13-.39.21-.52.5-.8 1.21-.09 1.82-.16.21-.02.44.25.74.43-.42.35-.9.66-.61 1.28.63-.48 1.02.8 1.76.18.77-.64 2.06-.25 2.36.75.23.77.61.9 1.26.85.33-.03.63.06.89.27 1.11.87 1.84.12 2.26-.74.26-.53.61-.69 1.09-.92-.35-.39-1.51-.36-.85-1.12.37-.43 1.01-1.53 1.99-.43-.03-.56.26-1.1-.34-1.42-.24-.13-.76.01-.56-.52.16-.43.59-.16.86-.16 3.19 0 6.37.06 9.56.07 5.34.02 10.68.01 16.02 0 .48 0 1.01.17 1.56-.38-.8-.06-1.48-.15-2.16-.15-7.07-.01-14.15-.01-21.22 0-1.22 0-2.44.17-3.66.01-.31-.04-.73-.07-.93.09-1.74 1.42-1.19-.16-1.25-.94 9.89.31 19.79.05 29.69.13.59 0 1.19.03 1.77-.09.33-.07.65-.18.69-.56.05-.44-.27-.65-.62-.79-.43-.16-.9-.16-1.35-.16-9.18-.01-18.35.01-27.53-.02-1.24-.01-2.11.38-2.65 1.49z" fill="#fafbfb"/><path d="m46.45 161.76c1.18-1.05 2.37-2.09 3.52-3.17.48-.45.75-.53 1.14.12.34.57.84 1.03 1.31 1.58-2.76 2.48-5.51 4.95-8.27 7.42-.14.13-.23.32-.54.14-.87-.52-1.62-2.41-1.38-3.47.58-2.49.98-5.02 1.52-7.63-.91.76-1.83 1.52-2.72 2.3-.48.42-.9.9-1.37 1.35-1.2 1.15-2.47.78-2.99-.85-.08-.23-.13-.33.1-.55 2.47-2.19 4.9-4.42 7.37-6.61.3-.27.89-.83 1.11-.51.53.81 1.78 1.18 1.56 2.47-.35 2.11-1.07 4.15-1.26 6.29.15.76-.17 1.42-.44 2.09.28-.57.73-.89 1.34-.97z" fill="#fbfcfb"/><path d="m45.02 55.1c1.18 1.2 2.37 2.39 3.52 3.61.57.61.97 1.12.11 2.05-.98 1.07-1.32 1.12-2.32-.05-1.82-2.15-3.95-4.03-5.93-6.05-.39-.4-1.23-.75-.55-1.5.65-.71 1-1.88 2.39-1.59 2.27.48 4.56.87 6.88 1.04.8.24.9.2.88-.31-1.61-1.48-3.22-2.96-4.79-4.42.25-.41.29-.52.37-.6 1.78-1.83 1.84-1.88 3.6.03 2.03 2.21 4.09 4.38 6.28 6.5-.18.19-.35.33-.47.51-1.03 1.57-2.4 1.71-4.05 1.11-.53-.19-1.17-.09-1.76-.12-.51-.31-1.15.12-1.64-.27-.48-.49-1.1-.13-1.64-.26-.38-.28-.85.03-1.26-.22.15.18.33.32.38.54z" fill="#fbfcfc"/><path d="m182.69 92.61c-1.75.34-3.49.7-5.25 1-.44.07-1.3.56-1.24-.33.06-.8-1.28-2.08.55-2.47 3.22-.68 6.45-1.33 9.68-1.98.21-.04.44-.09.61.15.57.8.36 2.9-.34 3.65-1.53 1.65-3.03 3.33-4.55 4.99-.27.35-.42.82-.76.89.44-.49 1.24-.07 1.88-.38 1.44-.05 2.81-.46 4.21-.77.64-.14 1.27-.13 1.23.75-.03.77 1.03 1.96-.68 2.19-3.19.42-6.3 1.19-9.45 1.81-.63.12-.66.02-.85-.55-.54-1.63-.15-2.75 1.13-3.96 1.45-1.36 2.66-3 4.12-4.39.2-.33.39-.68-.29-.6z" fill="#fbfcfc"/><path d="m28.09 98.95c-2.39 0-4.81-.05-7.2-.52-.65-.13-.91-.17-.54-.87.31-.58-.5-1.56.48-1.86.61-.18 1.33.08 1.99.16 2.6.31 5.21.46 7.83.59.82.04.93.18 1.05 1.09.35 2.6-1.8 2.91-3.2 3.86-1.67 1.14-3.34 2.32-5.28 3.12 2.1.05 4.13.35 6.18.45.59.03 1.32-.06 1.59.5.36.76-.12 1.6-.32 2.35-.11.43-1.01.23-1.52.14-2.62-.45-5.28-.48-7.91-.8-.6-.07-1.6.39-1.63-.67-.03-.99-.55-2.18.78-2.9 2.54-1.38 4.81-3.21 7.5-4.33.1-.05.29-.04.2-.31z" fill="#fbfbfb"/><path d="m25.89 111.56c3.37-.05 6.07 2.88 5.92 6.31-.16 3.85-2.32 6.14-6 6.22-3.66.08-5.82-2.55-5.96-6.28-.14-3.58 2.56-6.25 6.04-6.25z" fill="#fbfcfc"/><path d="m178.34 114.82c-1.12-2.26-1.17-4.53-.01-6.79.55-1.58 1.78-2.35 3.3-2.76l-.01.01c1.73-.61 3.4-.76 4.9.56 1.61 1.24 2.57 2.73 2.82 4.88.51 4.33-3.4 7.87-7.58 6.65-.21-.06-.45-.05-.68-.07-1.18-.51-2.35-1.06-2.74-2.48z" fill="#fafcfb"/><path d="m177.64 143.08c-1.6.65-2.72-.69-3.73-1.65-1.15-1.1-1.61-2.68-1.66-4.4-.08-2.98 2.47-6.48 6.09-6.29 3.9.21 5.79 2.7 5.92 6.12.11 2.97-2.16 6.57-6.62 6.22z" fill="#fbfcfc"/><path d="m130.62 39.4c-1.22-2.27-1.7-4.55-.32-6.96 1.27-2.22 4.23-3.49 6.75-2.83 2.41.64 4.44 3.12 4.54 5.53.13 3.26-1.31 5.44-4.4 6.53-2.5.91-4.99.05-6.57-2.27z" fill="#fbfcfc"/><path d="m168.08 153c.37-.6.74-1.1 1.02-1.65.57-1.14 1.18-1 2.05-.27.5.42.45.65.15 1.1-.84 1.26-1.68 2.52-2.44 3.82-.34.59-.58.62-1.13.24-2.18-1.48-3.28-3.49-2.78-6.09.56-2.9 2.85-5.11 5.58-5.38 2.81-.29 6.26 1.96 6.45 5.46.21 3.8-1.84 6.13-4.73 7.04-.89.28-1.24-.04-1.04-.89.22-.93.29-1.8 1.57-2.26 1.1-.4 1.89-1.59 1.72-3.1-.17-1.5-1.2-2.31-2.3-2.97-1.65-1-3.03-.83-4.1.5-1.35 1.7-1.38 2.8-.02 4.45z" fill="#fbfbfb"/><path d="m182.7 75.73c.12.46-.33.46-.57.59-.68.34-1.35.78-2.07.91-1.48.27-1.31 1.05-.88 2.1 1.17 2.85 1.14 2.84 4.02 1.56.44-.2 1-.9 1.4-.38.51.68.78 1.57 1 2.42.09.34-.51.46-.82.59-2.61 1.14-5.24 2.23-7.84 3.37-1.57.69-2.68.01-2.72-1.71-.01-.36.2-.45.45-.57.44-.21.86-.49 1.31-.67 2.65-1.07 2.55-1.02 1.43-3.66-.57-1.35-1.05-1.81-2.36-.85-.3.22-.82.31-1.2.53-1.02.57-1.7.66-2.16-.77-.36-1.11-.39-1.51.85-1.96 2.54-.93 4.99-2.13 7.46-3.24 1.54-.71 2.68.01 2.7 1.74z" fill="#fbfcfb"/><path d="m130.91 187.65c.16 1.83-.74 2.98-2.31 3.73-.93.44-1.92.73-2.94.79-2.76.15-3.73-.48-4.55-3.11-.66-2.12-1.15-4.29-1.75-6.42-.21-.73-.1-1.03.74-1.25 1.87-.49 1.81-.55 2.31 1.36.49 1.89 1.05 3.76 1.64 5.62.3.95.99 1.55 2.04 1.28s1.87-.77 1.8-2.13c-.12-2.35-.99-4.53-1.55-6.76-.29-1.15.31-1.28.96-1.41.68-.13 1.63-.81 1.9.63.48 2.57 1.5 5.03 1.71 7.67z" fill="#fbfbfb"/><path d="m98.79 31.47c.23 1.78-.12 3.6-2.3 4.37-2.63.93-5.33.81-6.64-.83-1.04-1.31-.94-2.94-1.18-4.46-.23-1.5-.23-3.04-.54-4.53-.36-1.7 1.18-1.06 1.85-1.35.73-.32 1.15.05 1.17 1.02.05 2.19.34 4.37.74 6.53.21 1.13.79 1.8 1.99 1.73 1.37-.08 2.05-.79 2.16-2.25.08-1.18-.15-2.37-.35-3.49-.21-1.16.12-2.37-.41-3.46-.02-.04-.02-.09-.02-.13-.07-.71.51-.62.82-.51.72.24 1.9-1.18 2.1.26.32 2.25.7 4.54.61 7.1z" fill="#fafcfb"/><path d="m37.87 139.86c.37.61.74 1.27 1.17 1.89.28.41.3.72-.12 1.03-1.01.76-1.1 1.59-.28 2.58.3.37.43.88.67 1.31.5.9.92 1.94 2.31 1.12.23-.14.8-.26 1.02.33.26.69.97 1.45.82 2-.18.65-1.28.41-1.96.59-2.79.76-5.72.89-8.52 1.67-.63.18-1.23.11-1.64-.71-1.39-2.81-1.39-2.74.88-5.23 1.93-2.12 3.75-4.36 5.65-6.58z" fill="#fafbfb"/><path d="m85.96 192.65c-.69-.18-1.2-.37-1.73-.45-.83-.11-1.18-.52-1.07-1.36.13-.91-.11-1.47-1.2-1.49-.55-.01-1.13-.26-1.65-.49-1.12-.49-2.02-.55-2.52.85-.23.65-.85.33-1.27.24-.6-.13-1.17-.4-1.75-.61.09-.15.19-.29.28-.44 2.03-3.04 4.05-6.08 6.1-9.1.29-.42.63-.59 1.27-.38 2.92.95 2.86.91 2.96 4.03.1 3.04.38 6.05.58 9.2z" fill="#f9fafa"/><path d="m35.35 83.01c-.18.7-.34 1.21-.44 1.73-.19 1-.5 1.73-1.74 1.13-.51-.25-.85 0-1 .55-.25.9-.54 1.78-.81 2.67-.29.95-.38 1.81.84 2.19.56.17.66.7.48 1.11-.3.68-.32 1.48-.82 2.07-2.9-2.11-5.79-4.2-8.66-6.31-.62-.46-1.19-.95-.64-1.91.32-.56.44-1.26.56-1.91.11-.58.43-.74.94-.73 2.31.02 4.6-.49 6.92-.28 1.43.12 2.86-.16 4.37-.31z" fill="#fafbfb"/><path d="m163.59 61.23c.56.68 1.05 1.39 1.66 1.99.82.82.77 1.43-.11 2.19-1.03.89-1.38-.11-1.81-.6-.97-1.12-1.82-2.33-2.75-3.47-.48-.59-.66-.86.15-1.5 2.56-1.99 4.97-4.15 7.42-6.27.4-.35.69-.56 1.09-.03 1.16 1.54 2.34 3.05 3.5 4.59.86 1.14-.64 1.03-.91 1.59-.34.68-.82.06-1.01-.27-.28-.48-.76-.81-1-1.26-.66-1.23-1.23-1.44-2.24-.27-.36.41-.35.6-.14.9.39.55.78 1.13 1.28 1.57.75.67.61 1.13-.05 1.77-.76.74-1.24.38-1.72-.23-.55-.7-1.06-1.43-1.6-2.15-.67.41-1.04 1.15-1.76 1.45z" fill="#fafcfb"/><path d="m116.65 31.52c-.43-.08-.86-.17-1.29-.25-.11.76-.53 1.68-.24 2.21.31.55 1.35.1 2.06.23.17.03.32.18.49.22 1.48.32 1.65.66 1.15 2.12-.12.37-.34.41-.6.36-1.77-.32-3.55-.5-5.36-.57-.53-.02-.97-.33-.89-1.07.39-3.27.75-6.55 1.07-9.83.06-.6.13-.94.83-.86 1.88.2 3.78.25 5.62.61.93.18.3 1.23.4 1.88.11.67-.51.6-.84.5-.75-.22-1.54-.12-2.27-.28-1.02-.21-1.14.36-1.25 1.06-.12.8.05 1.3 1.05 1.2.36-.04.73.26 1.16.26.52 0 1.37-.29 1.51.18.19.62-.07 1.4-.24 2.09-.08.32-.47.13-.72.15-.52-.28-1.12.04-1.64-.21z" fill="#fafcfb"/><path d="m56.29 48.57c1.15.39 2.14.21 3.06-.37.63-.4 1.02-1.06.7-1.72-.29-.6-.81-1.19-1.72-.81-.49.2-1.06.19-1.56.38-1.22.45-2.43.49-3.39-.44-1.11-1.07-1.16-2.53-.81-3.91.36-1.42 2.79-3.07 4.24-3.08.77-.01.98.49.83 1.08-.09.37.71 1.22-.51 1.13-.33-.03-.69.15-1.02.27-.85.33-1.42.94-1.15 1.87.3 1.01 1.19.6 1.84.47 1.23-.24 2.35-1.11 3.72-.39 2.2 1.14 3.06 4.65.63 6.69-.97.81-2.15 1.41-3.5 1.52-1 .08-1.57-.13-1.38-1.29.08-.46.02-.92.02-1.4z" fill="#fafcfb"/><path d="m177.04 71.15c.2-2.26-.61-3.71-2.33-4.19-1.47-.42-3.52.62-4.24 2.15-.69 1.48.11 3.14 2.37 4.78-.66.41-1.28.82-1.92 1.19-.5.29-.89.03-1.28-.3-1.97-1.69-2.47-3.97-1.93-6.27.53-2.25 2.22-3.74 4.51-4.39 3.72-1.04 6.24 1.44 7.1 4.23.25.82.2 1.56-.78 2.03-.48.24-.96.54-1.5.77z" fill="#f9fafa"/><path d="m116.86 185.42c-2.01-1.26-3.62-1.18-4.7.11-1.09 1.3-1.03 3.92.11 5.13 1.37 1.45 2.73 1.31 5.06-.53.31.86.21 1.79.27 2.62.07 1-1.23 1.17-2 1.32-3.15.59-5.34-.57-6.34-2.68-1.4-2.95-1.23-5.19.74-7.76 1.04-1.36 4.47-2.14 6.02-1.48.25.1.67.17.59.62-.13.84.21 1.66.25 2.65z" fill="#fbfcfc"/><path d="m67.24 185.89c-1.81-1.95-2.08-4.18-1.07-6.55 1.14-2.68 3.18-4 5.72-3.88.95.04 1.84.35 2.64.83 2.13 1.31 2.12 1.33.56 4.28-.99-1.74-2.41-2.65-3.7-2.36-1.33.3-2.61 1.69-2.75 3.01-.21 1.91.25 2.92 1.62 3.58.55.25 1.21.12 1.74.44.5.55.52 1.14.06 1.71-.44.54-.95.67-1.68.45-1.14-.33-2.17-.85-3.14-1.51z" fill="#fbfcfc"/><path d="m153.02 38.77c-1.06 2.2-1.07 2.2-3.06.89-.23-.15-.43-.33-.65-.49-.55-.42-1.11-.62-1.4.22-.2.58-1.22 1.28.16 1.78.41.15.72.54 1.13.71 1.12.48 1.26.99.47 2.04-.5.67-.73.61-1.3.26-.78-.49-1.51-1.57-2.34-1.34-.77.21-.98 1.47-1.52 2.2-.36.49-.51 1.48-1.03 1.41-.68-.08-1.3-.71-1.91-1.16-.41-.3-.27-.64-.01-1.06 1.71-2.76 3.37-5.55 5.07-8.33.36-.59.68-.9 1.47-.31 1.56 1.17 3.27 2.13 4.92 3.18z" fill="#fafcfb"/><path d="m163.66 169.82c-.64-2.49-1-4.83-1.88-6.96-.61-1.47-2.09-2.52-3.38-3.5-.68-.52-.5-.79-.19-1.22 1.17-1.61 1.76-1.77 2.97-.16 1.73 2.29 4.14 2.61 6.64 2.93.41.05.8.07 1.17.26.47.24 1.46-.49 1.43.58-.02.9-1.87 2.18-2.58 2-.56-.14-1.14-.23-1.69-.38s-1.09-.34-1.75-.56c.12 1.32.77 2.39 1.18 3.51.25.69.2 1.01-.29 1.46-.58.55-1.2 1.08-1.63 2.04z" fill="#fafbfb"/><path d="m157.63 57.75c-.12-.1-.23-.18-.34-.27-2.08-1.78-2.07-1.77-.15-3.86 1.22-1.33 2.44-2.67 3.63-4.03.38-.44.64-.76-.18-1.25-1.4-.83-1.12-2.27.42-2.96.39-.17.47.13.62.28 1.63 1.52 3.23 3.06 4.87 4.57.52.48.8.92.06 1.37-.53.32-.79 1.61-1.76.51-.84-.94-1.56-1.08-2.46.11-1.44 1.89-3.08 3.63-4.71 5.53z" fill="#fafcfb"/><path d="m67.53 38.64c0 .09.02.16.06.24.34.19.33.57.49.86.35 1.06.83 2.06 1.49 2.96.48.64.55 1.09-.34 1.53-1.87.94-1.84.99-2.76-.84-.96-1.91-1.83-3.86-2.91-5.72-.35-.6-.51-.56-.95-.3-.11.07-.25.09-.37.15-.43.24-.82.98-1.29.57-.5-.44-.74-1.2-1.04-1.84-.13-.27.18-.33.38-.43 2.1-1.16 4.16-2.39 6.29-3.48.99-.51.62.9 1.2 1.07.27.31.67.59.27 1.07l.01-.01c-.23.53-.68.77-1.22.89-.66.16-.69.57-.42 1.09 0 .09.02.17.06.24.71.46.9 1.2 1.05 1.95z" fill="#fafcfb"/><path d="m104.31 35.29c-.01-2.65-.06-5.3 0-7.95.02-1.01-.17-1.54-1.31-1.37-.37.05-1 .24-1.11-.21-.16-.64-.08-1.36-.01-2.04.02-.22.37-.2.6-.2 2.28 0 4.57.03 6.85-.02.81-.01.77.47.71.97-.08.69.16 1.6-.89 1.78-.57.1-1.16.03-1.82-.34-.07 3.22.12 6.31-.31 9.37-.91.14-1.81.68-2.71.01z" fill="#fafbfb"/><path d="m36.37 136.24c-.13.46-.64.56-1 .71-1.92.81-3.86 1.58-5.8 2.33-1.03.4-1.47.94-.77 2.01.35.53.7 1.27-.32 1.42-.62.09-1.45 1.34-1.97-.38-.63-2.12-1.64-4.12-2.4-6.21-.28-.77.29-.93.5-.88.63.14 1.16-1.21 1.8-.09.34.6.23 1.66.99 1.76.6.08 1.29-.49 1.94-.76 1.68-.7 3.36-1.41 5.04-2.09.65-.26 1.27-.49 1.4.63.07.5.57.92.59 1.55z" fill="#f8f9f8"/><path d="m84.86 28.31c-.17.09-.45.33-.75.36-1.44.15-1.66.81-1.25 2.14.67 2.11 1.06 4.31 1.72 6.42.22.72 0 .76-.53.94-2.06.69-2.02.7-2.55-1.39-.48-1.89-1.16-3.74-1.49-5.66-.21-1.24-.77-1.24-1.65-.96-.41.13-.92.55-1.2.13-.38-.57-.55-1.3-.56-2.02 0-.3.23-.31.46-.37 2.02-.54 4.06-1 6.03-1.68 1.22-.42 1.53.12 1.7 1.09.05.28.04.55.07 1z" fill="#fbfcfc"/><path d="m134.77 179.33c-.47.14-.78.22-1.07.33-1.19.47-2.15-.2-2.14-1.49 0-.36.21-.43.46-.53 2.16-.94 4.32-1.87 6.47-2.82.26-.11.4-.26.62.12.91 1.55.78 2.09-.93 2.73-.86.33-.5.86-.31 1.32.88 2.18 1.71 4.39 2.72 6.51.42.87.13 1.12-.54 1.44-1.02.49-1.83.91-2.34-.73-.65-2.07-1.6-4.04-2.45-6.04-.14-.32-.14-.81-.49-.84z" fill="#fafcfb"/><path d="m35.66 81.08c-.08-.04-.32-.14-.56-.25-2.76-1.38-5.52-2.76-8.28-4.12-.7-.34-.94-.65-.5-1.47.95-1.79.89-1.83 2.67-.93 1.91.97 3.83 1.91 5.71 2.95.49.27.66.17.74-.25.13-.73.57-1.31.87-1.96.57-1.24 1.6-1.34 2.51-.31.22.25.15.42.04.71-.7 1.79-1.61 3.47-2.47 5.18-.13.21-.16.55-.73.45z" fill="#fbfcfc"/><path d="m90.07 192.42c.3-2.26.6-4.51.9-6.77.14-1.06.36-2.12.41-3.19.03-.66.31-.78.84-.7.57.08 1.11.36 1.72.28.47-.07.52.28.47.62-.31 2.16-.56 4.34-.97 6.48-.37 1.93-.16 2.25 2.1 2.5.48.05 1.23-.26 1.36.25.18.69.02 1.48-.06 2.22-.03.31-.28.16-.51.12-1.72-.25-3.45-.47-5.19-.68-.68-.08-1.23-.27-1.07-1.13z" fill="#fbfbfb"/><path d="m177.14 127.47c-1.73-.17-1.71-.17-1.34-1.81.31-1.39.59-2.78.87-4.17.15-.75.18-1.27 1.35-.95 2.91.81 5.89 1.35 8.84 2.03.73.17 1.43.5.99 1.44-.33.71.04 2.1-1.66 1.57-2.03-.63-4.15-.97-6.2-1.56-1.06-.31-1.49.06-1.66 1.01-.11.61-.19 1.24-.3 1.85-.09.51-.3.9-.89.59z" fill="#f7f8f8"/><path d="m45.31 64.99c-.44.62-.88 1.44-1.53 2-.21.18-.83-.53-1.25-.86-2.42-1.91-4.85-3.82-7.32-5.66-.55-.41-.61-.57-.13-1.06.52-.53.87-1.63 1.37-1.68.58-.05 1.19.83 1.79 1.3 2.14 1.69 4.35 3.29 6.52 4.93.26.22.59.44.55 1.03z" fill="#fafbfb"/><path d="m33.15 125.95c-.01-.01.03.02.04.05.63 3.06.62 3.05-2.65 3.93-2.52.68-5.04 1.41-7.58 2.12-.24-.34-.19-.81-.33-1.23-.5-1.58-.31-1.8 1.29-2.24 3.07-.86 6.14-1.75 9.23-2.63z" fill="#fbfcfc"/><path d="m72.51 29.66c.34-.14.41.01.51.26 1.3 3.24 2.68 6.46 3.9 9.73.59 1.57-1.16.96-1.71 1.52-.56.58-.88-.09-1.05-.52-1.15-2.83-2.11-5.75-3.46-8.48-.73-1.49-.02-1.77.98-2.24.3-.13.68.04.83-.27z" fill="#fafbfb"/><path d="m101.59 182.56c.54.17.9.39 1.32.3 1.55-.32 1.77.48 1.67 1.8-.24 3.14-.39 6.29-.57 9.43-.01.21.01.6-.27.51-.83-.27-1.69-.18-2.53-.28-.21-.03-.22-.26-.2-.44.43-3.72.48-7.46.58-11.32z" fill="#fbfcfc"/><path d="m54.66 89.87c-1.32-3.43-2.77-6.8-3.62-10.4-.96-4.05-1.13-8.06-.17-12.55-.69.95-1.18 1.57-1.62 2.23s-.81 1.38-1.27 2.03c-.54.75-.79 1.69-1.54 2.3.1-2 1.5-3.33 2.59-4.77.69-.9.96-2.03 1.77-2.9.22.54.55.95.55 1.48.78-.25.54-1.39 1.41-1.51-1.46 2.97-1.7 6.16-1.34 9.34.42 3.75 1.46 7.4 2.95 10.89.71 1.67 1.44 3.33 2.16 4.99-.4.01-.65.22-.79.58-.93-.22-.71-1.15-1.08-1.71z" fill="#18487d"/><path d="m59.07 171.06c1.93 0 3.25 1.29 3.25 3.15 0 1.82-1.5 3.41-3.24 3.43-1.65.02-3.43-1.61-3.26-3.28.19-1.87 1.19-3.4 3.25-3.3z" fill="#fcfcfc"/><path d="m149.53 174.02c.01-1.85 1.33-3.35 3.03-3.2 1.89.17 3.26 1.44 3.24 3.28-.02 1.9-1.1 3.27-3.27 3.26-1.87 0-3-1.26-3-3.34z" fill="#fcfcfc"/><path d="m100.46 148.34c.19-.34.53-.35.84-.31 1.79.25 3.58-.42 5.38-.02.33.07.77.07.85-.44.07-.49-.23-.64-.66-.64-.36 0-.63-.1-.67-.51.77.01 1.82-.51 1.71 1.05-.02.23.54.54.86.75 6.46 4.21 13.17 7.95 20.42 10.64.03.01.04.08.06.12-.55.2-1.35-.42-1.67.51-3.68-1.36-7.17-3.14-10.67-4.9-.54-.1-1.04-.25-1.52-.54-2.45-1.48-4.93-2.92-7.3-4.53-.91-.62-1.85-.85-2.94-.89-1.55-.04-3.16.37-4.69-.29z" fill="#18497b"/><path d="m171.24 118.41c-.27-1.49.56-2.93.1-4.54-1 2.06-2.27 3.85-3.86 5.4-.45.44-.91.84-1.42 1.22-1.05.77-2.27 1.46-1.75 3.23.27.9-.13 1.85-1.04 2.42-.2-1.07.3-2.17-.13-3.24-.07-.18.13-.42-.02-.65-.54-.86-3.75-1.03-4.41-.23-.53.64-1.6.5-2.36-.32 1.6-1.12 3.57-1.55 5.22-.96 1.9.68 2.85-.24 3.96-1.21 2.5-2.18 4.49-4.72 5.36-8 .4.23.82.33.89.98.12 1.11.41 2.21.71 3.29.16.58-.29 1.28-.41 1.32-.66.24-.49.92-.84 1.29z" fill="#18477a"/><path d="m39.81 102.49c1.65-2.6 4.12-4.32 6.59-5.99 1.57-1.06 3.3-1.88 4.95-2.81.76-.5 1.37-1.35 2.46-1.08.01.36-.27.45-.5.64-.47.39 0 .42.27.5-2.15 1.32-4.49 2.3-6.61 3.68-2.62 1.71-4.84 3.84-6.85 6.21-.02-.4.39-.93-.31-1.15z" fill="#18477a"/><path d="m112.23 175.97c-3.66.41-7.34.43-11 .27-1.53-.07-3.14.07-4.63-.54.15-.64.68-.5 1.1-.5 4.33-.02 8.66-.02 12.99 0 .6 0 1.32-.07 1.54.77z" fill="#e7ebeb"/><path d="m112.23 175.97c-.5-.35-1.06-.51-1.65-.51-4.41 0-8.82 0-13.23 0-.28 0-.55.02-.75.24-1.2.25-2.34-.36-3.52-.26 0-.55.43-.37.69-.37 7.36-.01 14.71-.01 22.07-.01.19 0 .36.04.5.17-.65.46-1.52.09-2.17.56-.54.23-1.15-.09-1.68.21l-.13.01z" fill="#dcf0f1"/><path d="m116.34 175.22c-7.52-.01-15.05-.02-22.57-.03-.25 0-.56-.12-.69.24-.18-.01-.44.05-.53-.05-.25-.29.05-.39.25-.42.31-.05.63-.05.95-.05 7.11 0 14.22-.01 21.33 0 .43 0 .93-.17 1.26.31z" fill="#204763"/><path d="m129.24 44.87c-.91-.37-1.93-.47-2.77-1.04 2.28.31 4.18-1.55 6.48-1.11.43.08.9-.12 1.4.23-.58.58-1.28.3-1.88.3-.92 0-1.76.1-2.59.56-.49.26-.66.57-.64 1.06z" fill="#174578"/><path d="m130.62 39.4c1.16 1.12 2.44 1.98 4.07 2.39.91.23 1.66-.24 2.49-.12-.18.35-.47.5-.86.51-.46.01-.31.3-.23.54-1.86-.78-4.32-.44-5.36-2.79-.07-.16-.07-.35-.11-.53z" fill="#174578"/><path d="m67.24 185.89c1.06.22 1.88 1.01 2.97 1.2 1.5.26 2.04-.23 1.72-1.72.3-.35.61-.61 1.09-.28l-.02-.02c.02 2.28-.84 3.14-2.7 2.69-1.01-.64-2.36-.74-3.06-1.87z" fill="#ecf5f6"/><path d="m66.43 36.45c-.4-.45-.76-.86.15-1.19.52-.18.99-.52 1.48-.79.1.7.39 1.17 1.21 1.16.41 0 .52.37.39.69-.18.42-.4.09-.62-.03-.54-.3-1.18-.13-1.76-.57-.55-.41-.86.12-.85.73z" fill="#174677"/><path d="m186.54 105.84c-1.56-.81-3.22-.84-4.9-.56-.07-.25-.23-.56.24-.57 1.23-.01 2.45-.04 3.68.03.59.03.95.46.98 1.1z" fill="#174675"/><path d="m37.9 101.11c-.13.95.56 1.86.03 2.93.37-.18.6-.3.83-.41-.42.95-.83 1.9-1.25 2.85.3-1.79-.13-3.62.39-5.37z" fill="#ecf4f5"/><path d="m70.29 187.76c1.85.03 1.57.63 2.7-2.69.24.26 1.25.24.27.94-.3.21-.31.8-.5 1.2-.48 1.03-1.37 1.23-2.47.55z" fill="#18466f"/><path d="m181.64 105.27c-1.33.64-2.47 1.52-3.3 2.76.15-1.89 1.06-2.65 3.3-2.76z" fill="#174675"/><path d="m46.45 161.76c-.83.38-1 1.45-2.02 1.89.41-1.08.77-2.05 1.13-3.01.44.26.3.98.89 1.12z" fill="#194973"/><path d="m104.31 35.29h2.7c-.02.25-.07.76-.18.67-.68-.54-1.24.05-1.83.12-.74.09-.71-.31-.69-.79z" fill="#1a4468"/><path d="m178.34 114.82c.65 1.12 1.77 1.73 2.76 2.48-1.92-.16-2.5-.68-2.76-2.48z" fill="#18456d"/><path d="m138.87 43.27c-.84 0-1.67 0-2.51 0-.19 0-.35-.03-.34-.29.01-.24.13-.29.34-.26.83.09 1.7-.18 2.51.55z" fill="#174578"/><path d="m67.53 38.64c-.5-.57-.75-1.27-1.04-1.95 1.49.2 1.62.44 1.04 1.95z" fill="#174677"/><path d="m183.29 98.13c-.85.29-1.7.59-2.55.88-.04-.06-.07-.13-.11-.19.51-.4 1.02-.8 1.53-1.2.13.72.72.42 1.13.51z" fill="#1f4765"/><path d="m184.23 153.03c.86-.92 1.65-.5 2.41-.46-.68.68-1.53.23-2.41.46z" fill="#174574"/><path d="m145.42 162.79c-.12-.71-.71-.43-1.12-.52.8-.49 1.82-.21 2.6-.81-.25.77-.92.99-1.48 1.33z" fill="#e5f2f4"/><path d="m73.01 185.09c-.42-.14-.69.33-1.09.28-.59-.1-1.19-.16-1.67-.58.92.12 1.9-.34 2.76.3z" fill="#18466f"/><path d="m37.69 115.39c-.04.09-.04.17-.02.26-.59-.76-.37-1.64-.19-2.42.1-.44.35 0 .45.22 0 0-.05.05-.05.05-.31.6.28 1.3-.19 1.89z" fill="#1d4564"/><path d="m188.92 152.03c-.77.48-1.2.43-1.75.21.46-.58.94-.34 1.75-.21z" fill="#174574"/><path d="m45.02 55.1c-.44-.32-1.08-.4-1.28-1.16.76.3 1.46.57 2.16.84-.32.03-.67-.03-.88.32z" fill="#224a68"/><path d="m50.01 52.3c.3.17.57.38.73.8-.64.07-1.15-.13-1.62-.49.32-.03.68.04.89-.31z" fill="#1f4a6c"/><path d="m68.07 39.74c-.32-.2-.37-.55-.49-.86.27-.14.53-.27.87-.45-.13.48-.25.89-.38 1.31z" fill="#174677"/><path d="m182.69 92.61c.23-.44.61-.21 1.04-.24-.11.44-.43.64-.73.85-.01-.25-.06-.48-.31-.61z" fill="#204663"/><path d="m68.05 34.48c-.09-.36-.18-.71-.27-1.07.74.19 1.11.48.27 1.07z" fill="#174677"/><path d="m112.49 175.99c.5-.52 1.11-.17 1.68-.21-.52.4-1.12.16-1.68.21z" fill="#2a4150"/><path d="m116.65 31.52c.56.02 1.15-.28 1.65.21-.56-.04-1.15.23-1.65-.21z" fill="#24435a"/><path d="m47.54 55.04c.54.15 1.16-.22 1.64.28-.55-.06-1.17.26-1.64-.28z" fill="#254256"/><path d="m61.27 241.26c-1.68-.46-1.82-1.58-1.29-3.01.14.22.27.43.43.68.7-1.43-.07-2.97.51-4.38.12-.3 0-.93-.46-.72-.57.26-1.63-.2-1.68.94-.03.68.02 1.37-.02 2.05-.05.71.03 1.38-.27 2.12-.49 1.18.27 3.28 1.22 3.93-1.06.09-2.04-.01-3 0-.83.01-1.43-.78-1.44-1.58-.01-.64 0-1.29.01-1.94.01-.86-.05-1.32-1.24-.87-.96.36-2.32-.16-2.13 1.64 0 .03-.39.1-.63.16.17.54 1.02.01.99.69-.02.57-.78.14-.9.62-.89-.09-1.57-.42-1.68-1.43.33-.35.8-.61.9-1.12.2-1.06.98-1.38 1.88-1.61.79-.25 1.73.16 2.6-.6-.73-.31-1.26.09-1.79.13-1.86.17-2.61-.42-2.8-2.26-.26-2.61-.26-2.61 2.4-2.89.18-.02.36-.04.48-.21-.83-.46-5.77-.55-7.3-.11.34.47.82.31 1.23.34 1.49.11 1.69.32 1.74 1.83v.27c.01 1.96-.18 2.16-2.16 2.25-.27.01-.55.04-.82.02-.09-.01-.18-.06-.26-.06-.13 0-.17-.32-.35-.1.15-.04.24.04.34.14.33.38.5.78.16 1.24-.53-.03-.86.57-1.56.3-.5-.19-1.07 1.85-.46 2.38 1.18 1.02.11 1.25-.43 1.72-.37-.28-.45-.69-.45-1.1-.01-2.69-.17-5.39.09-8.07.14-.56.62-.63 1.08-.81.63-.24.37-.45-.1-.57-1.42-.07-2.83.03-4.24-.05-.16-.02-.31-.05-.46-.11s-.27-.17-.35-.31c-.09-.31-.39-.92-.27-.88.69.21 1.61-.64 1.93-.01.52 1.01 1.31.5 1.63.31 1.34-.82 2.51.05 3.74.19 1.38.15 2.66.31 4.07-.28 1.17-.49 2.68-.61 3.9-.32.53.13.82.11 1.26-.03.17-.06.52.03.61.17.26.4.56.91 1.02.48.56-.52-.21-.82-.42-1.22-.04-.08-.06-.16-.09-.25.27-.4.65.36.91-.09-.74-.36.64-1.04-.22-1.41-.3-.13-.2-.47-.22-.73.66-.01 1.3.15 1.98.04.69-.11 1.33.12 1.66.84-.46 1.01.2.99.88.94.49.26.74.75 1.07 1.16.19.24.33.58.73.31.48.25.94.51 1.54.28.38-.14 1.14-.39 1.12.12-.03.71.48 1.6-.39 2.2-.46.31-1.38.57-.02 1.32-1.37.1-1.42.99-1.43 1.9 0 .73-.02 1.46.01 2.18.01.38-.14.89.44.99.61.1.76-.39.88-.83.07-.25.06-.52.11-1.04.66 1.21.49 2.36.3 3.26-.12.56.17 1.2-.37 1.94-.57.78-1.09.59-1.49.5-.66-.15-1.84.34-1.79-1.06.98-.14 1.29-.69 1.26-1.68-.07-2.05-.01-4.11-.03-6.16-.01-1.02.12-1.93 1.28-2.42-1.33-.4-2.61-.3-4.01-.04 1.17.68 1.07 1.72 1.07 2.72 0 1.78.01 3.56-.01 5.34-.08.6.02 1.22-.43 1.72z" fill="#18487f"/><path d="m145.41 230.28c0 .17.01.35.01.52.09.5.27.93.78 1.18.45.22.73.57.27 1.06-.94-.77-3.03-.78-3.96-.02-1.05.86-3.27.85-4.26-.1-.43-.42-.82-.45-1.35-.31-.45.11-.66.16-.1.44.14.07.23.16.14.3-.88 1.51-.92 3.08-.43 4.71.1.34-.24.46-.33.7-.09.21-.13.46.06.63.17.15.31-.01.47-.11.39-.26.79-.35.98.21.19.57-.36.78-.68.82-1.36.16-1.09.81-.56 1.59.19.27.33.62-.02.82-.3.17-.39-.31-.64-.38-.08-.11-.19-.22-.21-.35-.3-3.04-.17-6.08-.07-9.13.02-.71.7-.88 1.21-1.31-.32-.36-.74-.29-1.11-.35-1.26-.21-2.21-1.22-2.22-2.37-.01-1.07.9-1.98 2.23-2.18 1.04-.16 2.09-.13 3.13.03 2.57.56 4.6 2.1 6.66 3.6z" fill="#18477c"/><path d="m139.08 227.02c-1.01 0-2.03-.03-3.04 0-1.4.04-2.47.88-2.4 1.85.09 1.19 1.04 1.97 2.41 1.98.23 0 .46.02.68 0 .47-.03.78.04.76.64-.02.5-.12.82-.68.72-.95-.17-1 .36-1 1.11.02 3.01-.01 6.02-.02 9.04-2.43-.79-2.44-.79-2.44-3.2 0-2 .01-4.01-.01-6.01 0-.35.23-.94-.46-.9-.73.04-1-.21-.91-.92.1-.77.69-.37 1.06-.46.22-.05.45-.01.82-.01-.68-1.05-1.81-1.73-1.65-3.16.11-.95.48-1.5 1.33-1.78 2.36-.78 4.58-.4 6.7.81-.26.52-.69.48-1.15.29z" fill="#f9fafa"/><path d="m122.67 241.81c-.46-.06-.74.23-1.07.48-.45.35-.48.3-1.33-.2.45-.41 1.28-.36 1.41-1.23-1.07-.46-1.86.79-2.88.51-.01 0-.06.06-.07.1-.49 1.06-1.49 1.52-2.92 1.23.56-.41 1.03-.76 1.7-1.24-1.28-.05-.99-.94-1.06-1.56-.43-.2-.48.3-.76.27-.42-.05-.71.75-1.19.19-.11-.13-.25-.35-.21-.46.19-.5.78-.09 1.14-.52-.51-.32-1.5-.49-.72-1.42.42-.12.71.13.98.37 1.41 1.23 3.02 1.05 4.66.71.27-.06.53-.16.74-.34.26-.22.44-.51.25-.84-.2-.33-.49-.13-.71-.01-.81.43-1.67.74-2.56.93-1.01.21-1.91.03-2.59-.82-.51-.64-.52-1.15.36-1.45.22-.07.44-.13.65-.21 1.43-.55 1.72-1.47.89-2.79-.17-.27-.39-.51-.59-.76-.33-.42-.16-.66.28-.8.49-.15 1-.15 1.49-.1.88.09 1.5-.2 1.87-1.01h.32c1.77 1.17 1.88 2.91 1.79 4.81-.09 2.06-.08 4.12.13 6.16z" fill="#18477e"/><path d="m180.27 232.48c-.68 0-1.37.01-2.05.01-2.18 0-2.72.87-1.77 2.8.1.19.27.47.21.61-.44.9-.54 1.88-.67 2.83-.13.94-.11 1.9-.12 2.85-.03 1.51-.03 1.52-1.42.96-.12-.05-.28-.06-.4-.02-2 .66-1.25-.99-1.32-1.72-.04-.44-.12-.88-.2-1.31-.11-.57-.64-.49-1-.34-.47.19-.17.57.01.78.53.62.66 1.14-.08 1.72-.43.34.35.69.16 1.04-1.56-.27-3.09.67-4.62.09.04-.49.42-.46.61-.39 1.45.53 2.07-1.17 3.32-1.2.24-.01.23-.43.06-.56-.87-.7.57-2.1-.8-2.59-.21-.07-1.02-.32-.61.51.17.35 0 .48-.19.69-.78.87-3.27.55-4-.34-.65-.79-1.27-1.46-.82-2.55.79.61 1.25 1.56 2.2 2 .72.33 1.37.61 1.69-.48.23-.77.93-.75 1.57-.8.68-.06 1.42.17 2.22-.35-.84-.4-1.57-.22-2.27-.27-1.32-.09-1.55-.32-1.63-1.65-.16-2.82-.09-2.87 3.49-3.04 1.3.03 1.69.79 1.68 1.98-.02 1.96-.01 3.92 0 5.87 0 .46-.03.93.2 1.34s.6.79 1.07.73c.58-.07.36-.64.37-1 .02-2.19.01-4.37.01-6.56 0-.59-.05-1.19.2-1.75.52-.6 1.63-.5 1.82-1.5h.32c.38.67.91 1.04 1.73 1.02.41-.01.96-.05 1.03.59z" fill="#18477f"/><path d="m45.9 237.42c-.09-.45-.18-.9-.27-1.35l-.01.01c.69-.55 1.49-.27 2.24-.28.6-.01.84-.2.76-.79-.02-.18 0-.36 0-.55.01-2.21.01-2.2-2.18-2.25-.47-.01-1.14.28-1.14-.68 0-.98.68-.66 1.15-.67 2.19-.03 4.39-.02 6.58 0 .48 0 1.14-.26 1.1.71-.04.98-.72.62-1.17.64-.82.05-1.64.01-2.59.01.34.98.53 1.92.48 2.88-.06 1.14.59 1.46 1.6 1.53 1.08.07 2-.38 2.97-.75.15 1.82.15 1.82-1.57 1.82-.55 0-1.1-.02-1.64-.03-1.16-.61-2.08-.33-2.92.66-.3.36-.79.59-1.23.83-.46-.04-.69-.51-1.11-.62-.58-.17-.47-.96-1.05-1.12z" fill="#f7f8f8"/><path d="m83.43 237.41c-.87.01-1.73.06-2.6.01-.93-.05-1.73-.08-1.54 1.26.05.4-.19.72-.8.54-1.2-.37-2.2-.98-3.01-1.93-.28-.32-.33-.66-.22-1 .14-.41.56-.26.83-.22.85.11 1.17-.21 1.06-1.05-.05-.36-.06-.74-.01-1.09.19-1.27-.14-2.01-1.62-1.72-.47.09-.87.05-.88-.66 0-.67.32-.72.84-.71 2.19.02 4.38.02 6.57.02.46 1.22.32 1.55-.95 1.72-.82.11-1.36.29-1.37 1.28-.03 1.52.13 1.74 1.65 1.79.41.01.82-.01 1.23.06 1.07.18 1.24.54.82 1.7z" fill="#f4f6f6"/><path d="m171.73 231.98c-.44.3-.95.33-1.43.24-1.37-.25-1.65.36-1.59 1.63.11 2.19.03 2.2 2.23 2.2.45 0 .91.02 1.36 0 .53-.02.56.31.56.71.01.41-.06.7-.58.69-.86-.02-1.73.02-2.59-.01-.62-.02-1.06.04-.97.85.11.95-.31 1.2-1.2.82-1.33-.57-2.66-1.11-2.97-2.77.02-.04.04-.09.07-.12.54-.49 1.6.27 1.8-.45.26-.93.08-1.99.08-2.99 0-.78-.6-.47-.99-.55-.5-.09-1.26.33-1.22-.74.04-1.08.83-.63 1.29-.64 2.05-.03 4.1.02 6.15.04.31.37.33.73 0 1.09z" fill="#e5eaea"/><path d="m39.02 230.8c.08.04.16.06.25.07.45 1.21.27 1.53-.95 1.71-1.37.2-1.43.35-1.4 1.87.02 1.22.77 1.24 1.65 1.23.59-.01 1.18-.07 1.75.14.5.19.68.59.6 1.09-.1.62-.46.85-1.07.57-.68-.01-1.37.01-2.05-.05-.86-.08-1.39.04-1.27 1.12.06.55-.15.88-.92.63-1.16-.38-2.09-1-2.9-1.88-.29-.32-.34-.66-.22-1 .13-.4.55-.27.82-.22 1.01.16 1.14-.38 1.06-1.18-.04-.41-.06-.83 0-1.23.16-1.08-.14-1.65-1.35-1.45-.48.08-.87.04-.88-.67-.01-.69.36-.7.86-.7 2-.01 4.01-.03 6.02-.05z" fill="#f5f7f6"/><path d="m91.94 242.47c-2.47-.76-2.47-.76-2.47-3.19 0-2.05-.01-4.1.01-6.14 0-.54.02-1.03-.75-.92-.62.08-.61-.32-.63-.77-.04-.64.37-.61.79-.61 1.32 0 2.64.01 3.96 0 .47-.01.77.07.75.65-.01.51-.15.8-.69.71-.97-.16-.98.41-.98 1.12.02 3.05.01 6.09.01 9.15z" fill="#f8fafa"/><path d="m146.47 233.04c.04-.38.21-.82-.46-.82-1.33 0-.97-.71-.59-1.42 1.42.02 2.83.03 4.25.05.47.01 1.02-.17 1 .68-.02.68-.37.75-.87.68-.86-.12-.82.43-.82 1.01.01 3.06 0 6.12 0 9.19-2.23-.48-2.46-.77-2.47-2.93-.01-2.15-.03-4.29-.04-6.44z" fill="#f5f7f7"/><path d="m130.06 242.33c-2.46-.81-2.46-.81-2.47-3.02 0-2.05 0-4.11.01-6.16 0-.54.03-1.04-.75-.92-.6.09-.63-.28-.65-.75-.03-.63.34-.63.78-.63 1.28.01 2.56 0 3.83.01.44 0 .91-.12.91.63 0 .64-.27.82-.81.73-.8-.12-.87.31-.86.95.03 3.04.01 6.08.01 9.16z" fill="#fcfcfc"/><path d="m61.27 241.26c-.01-2.65-.03-5.3-.03-7.95 0-.61.09-1.23-.86-1.1-.56.08-.5-.36-.52-.73-.04-.48.16-.64.62-.63 1.42.02 2.83.02 4.25 0 .48-.01.63.18.63.64 0 .49-.09.83-.67.73-.94-.17-1.01.36-1 1.1.03 2.99.01 5.99.01 9.09-.66-.24-1.14-.43-1.63-.61-.27-.19-.53-.37-.8-.54z" fill="#fbfcfc"/><path d="m162.43 242.31c-2.15-.33-2.69-1.49-2.52-3.37.17-1.86.03-3.74.04-5.62 0-.59.13-1.24-.84-1.11-.55.07-.51-.34-.54-.72-.03-.46.12-.66.61-.66 1.42.02 2.83 0 4.25.01.32 0 .65-.04.65.45.01.46-.13.93-.61.89-1.16-.11-1.05.59-1.05 1.35.02 2.92.01 5.83.01 8.78z" fill="#f4f6f6"/><path d="m171.73 231.98c.01-.36.01-.72.02-1.08h4.94c.57.59.76 1.07-.33 1.18-.26.03-.54-.09-.75.17v10.15c-2.21-.44-2.49-.77-2.49-2.89 0-1.83-.07-3.66.03-5.48.05-1.14-.12-1.94-1.42-2.05z" fill="#fafbfb"/><path d="m43.42 232.25c.01 3.19.02 6.38.03 9.56.08.74-.3.76-.84.53-.59-.21-1.23-.31-1.66-.84 0-.09-.02-.17-.06-.25-.19-2.35-.06-4.71-.33-7.06-.08-.69-.04-1.32-.76-1.77-.6-.37-.46-1-.21-1.57 1.63.01 3.27.02 4.9.04.57.59.76 1.07-.34 1.19-.24.02-.53-.09-.73.17z" fill="#fbfcfc"/><path d="m82.89 230.89c1.41-.01 2.83-.02 4.24-.05.51-.01.73.13.72.69-.01.54-.21.78-.72.69-1-.18-.96.45-.95 1.13.02 3.01.01 6.02.01 9.1-1.02-.02-1.61-.86-2.43-1.19-.52-.67-.59-1.5-.41-2.22.54-2.11-.21-4.15-.12-6.22-.06-.33-.3-.52-.52-.74-.42-.46-.41-.88.18-1.19z" fill="#fbfcfc"/><path d="m120.44 230.86c.21 1.01-.07 1.53-1.23 1.38-.76-.1-1.55-.02-2.45-.02.9.91 1.79 1.8 1.44 3.1-.38 1.43-1.81 1.34-2.92 1.68.93 1.59 1.45 1.76 3.06 1.36 1.22-.3 2.24-.99 3.38-1.54.28 2.29-.04 2.61-2.25 2.82-1.88.18-3.48-.26-4.76-1.69-.08-.11-.15-.22-.23-.33-1.28-1.74-1.29-1.76.61-2.34.82-.25 1.9-.4 1.73-1.48-.16-1.06-.94-1.81-2.22-1.6-.18.03-.37.02-.55 0-.46-.03-1.01.19-1.03-.66-.02-.83.48-.71.97-.71 2.16.02 4.3.02 6.45.03z" fill="#f5f7f7"/><path d="m180.27 232.48c-.43-.51-1.03-.3-1.52-.24-1.16.13-1.44-.38-1.22-1.39 2.05-.01 4.1-.03 6.15 0 .47.01 1.27-.42 1.25.68-.02 1.09-.81.54-1.28.68-.13.04-.27.04-.4.05-.39.12-.79.18-1.19.3.14.29.36.53.51.81.88 1.67.47 2.76-1.33 3.57-.26.12-.73.07-.66.52.05.34.42.48.72.55 1.35.3 2.46-.39 3.63-.88.5-.21 1-.79 1.55-.08.2.69.29 1.37-.23 1.98-1.21.55-2.47.65-3.78.6-1.65-.07-4.02-1.9-4.39-3.48-.11-.47.03-.68.53-.66.65.03 1.2-.28 1.77-.52.55-.22 1.02-.53.92-1.17-.08-.58-.18-1.27-1.03-1.32z" fill="#f3f6f7"/><path d="m122.67 241.81c-.62-.27-.58-.8-.57-1.35.01-2.42-.01-4.83.01-7.25 0-.6.01-1.01-.82-1.02-1.02-.01-.4-.86-.53-1.34 1.46-.01 2.91-.01 4.37-.02.49-.01.87-.01.86.69 0 .67-.34.77-.85.7-.83-.12-.84.39-.83.99.02 2.46.01 4.91.01 7.37-.01 1.8-.01 1.8-1.65 1.23z" fill="#eaedee"/><path d="m185.73 230.89c1.64-.01 3.27-.02 4.91-.03.54.78.35 1.39-.53 1.65-.62.19-.97.59-1.31 1.07v8.75c-2.16-.69-2.16-.69-2.29-3.27-.25-.9.12-1.87-.31-2.74-.13-1.2-.13-2.4.31-3.56.01-.17.02-.35.03-.52-1-.64-1.08-.78-.81-1.35z" fill="#fafcfb"/><path d="m28.04 234.66c0-.54-.01-1.09.02-1.63.03-.52-.05-.9-.71-.81-.55.08-.66-.22-.68-.72-.02-.58.26-.68.74-.66.86.03 1.72.03 2.57.05.33.16.7.12 1.04.19.33.07.75-.11.73.48-.02.53-.38.5-.75.52-.25.01-.54-.1-.73.17v10.06c-1.62-.29-2.46-.98-2.25-2.69.16-1.25.03-2.54.02-3.81-.33-.38-.33-.77 0-1.15z" fill="#fafcfb"/><path d="m186.5 232.78v3.57c-.15.16-.03.44-.24.57-1.17.35-2.19 1.05-3.38 1.41-1.49.45-2.39-.04-3.26-1.24 1.11-.49 2.56-.3 3-1.68.41-1.29-.59-2.14-1.18-3.13h1.8c-.44.3-.33.52.09.72.22.1.46.59.61-.07.06-.25.23-.39.48-.16.54.49 1.16.5 2.08.01z" fill="#184881"/><path d="m150.95 231.94c0-.27 0-.55 0-.82 2.17-.3 4.36-.06 6.54-.13.34-.01.65.05.67.48.03.51-.3.54-.7.61-.56.11-1.27-.38-1.66.4.01 1.73-.02 3.46.06 5.19.05.94-.51 1.02-1.08.82-1.05-.37-2-.96-2.81-1.77-.27-.27-.27-.57-.23-.88.07-.49.5-.35.76-.31 1.02.16 1.25-.33 1.15-1.23-.07-.68-.02-1.36-.03-2.05-.84-.44-1.81.08-2.67-.31z" fill="#fafbfb"/><path d="m83.7 232.26c.02 3 .03 6 .05 9-.85-.18-.79-.93-.83-1.51-.06-.81-.64-1.78.51-2.34.36-1.4-.5-1.38-1.5-1.37-2.6.04-2.54.01-2.63-2.44-.04-1.13.26-1.58 1.4-1.38 1.09.19 1.65-.16 1.35-1.36h.32c-.07.96.48 1.32 1.33 1.4z" fill="#18477e"/><path d="m28.04 234.66v1.15c-.18.09-.37.19-.55.28-1.73.28-3.49-.11-5.22.21-1.36.88-1.46 1.98-.25 3.43.39.47.89.84 1.34 1.25-.04.07-.08.21-.11.21-1.6-.09-3.3-2.25-3.66-4.1-.23-1.19.44-2.05 1.6-2.46.18-.23.4-.36.7-.35 1.86.05 3.73-.11 5.59.09.19.1.37.19.56.29z" fill="#f7fafa"/><path d="m142.16 240.96c-2.18-.02-4.38-3.08-3.85-4.93.31-1.07 1.23-1.54 2.25-1.59 1.64-.09 3.28.01 4.92-.04.74-.02.76.36.79.92.02.63-.25.77-.81.76-1.14-.03-2.28.01-3.42-.01-.87-.01-1.62.17-1.95 1.08-.33.87-.21 1.7.45 2.37.5.51 1.08.96 1.62 1.44z" fill="#ebf0ef"/><path d="m109.21 235.83c-.54-.25-.56-.88-1.2-1.41 1.69 0 3.13.01 4.56 0 .58-.01.64.48.73.82.18.69-.43.5-.78.6-.36.28-.73.17-1.09 0-.28 0-.56 0-.83 0-.51.57.31.87.26 1.35 0 .09.02.17.06.24.67.8.45 1.64-.05 2.36-.36.53-.95.84-1.65.44-2.58-.14-4.97-1.96-5.89-4.4-.16-.41-.08-.63.23-.77.57-.25.36.3.48.53.44.86.67 1.86 1.6 2.4.27.18.6.19.91.26 1.79.41 3.28 0 2.66-2.42z" fill="#f1f5f5"/><path d="m107.97 230.83c1.36 0 2.73.01 4.09 0 .46 0 .76.06.77.65.01.6-.21.78-.79.78-2.77-.02-5.55-.02-8.32 0-.52 0-.84-.06-.84-.72 0-.68.36-.7.86-.7 1.41 0 2.82-.01 4.23-.01z" fill="#d8e1e1"/><path d="m22.5 232.24c-.95 0-1.91-.01-2.86.01-.53.01-.97.04-.95-.74.02-.7.4-.68.88-.68 2 .01 4 .01 6 0 .47 0 .87-.04.89.67.02.78-.41.76-.95.75-1.01-.02-2.01-.01-3.01-.01z" fill="#d9e1e2"/><path d="m162.16 226.14c-2.59.87-2.87 1.69-1.4 4.38-1.38.04-1.67-1.11-2.14-1.89-.48-.79-.53-1.73.16-2.5.76-.84 2.37-1.01 3.64-.45.08.25-.07.37-.26.46z" fill="#f6f9f9"/><path d="m60.41 227.83c-.56-.7-1.18-1-2.1-.58-.54.25-1.14.11-1.46-.52-.05-.35-.09-.71-.14-1.06.04-.01.08-.02.13-.03 2.73-.79 3.94 1.14 5.23 2.92.36.5.53 1.13 1.09 1.48-.04.85-.41.64-.76.2-.41-.5-.78-1.05-1.16-1.58-.38-.18-.75-.36-.83-.83z" fill="#c0d3d7"/><path d="m123.09 225.83c2.88-1.14 4.05.95 5.28 2.76.39.58 1.09 1.05 1.04 1.9-.96-.1-1.03-1.07-1.55-1.6-.95-.96-1.62-2.28-3.44-1.64-1.19.41-1.11-.81-1.33-1.42z" fill="#ebf0f0"/><path d="m39.61 230.86c-.06.71-.31 1.5.94 1.38.56-.05.39.51.39.83 0 2.73-.02 5.46-.04 8.19-.37-.38-.24-.86-.23-1.3.04-.94.06-1.86-.83-2.48.59.02.89-.16.84-.86-.05-.67-.46-.54-.84-.55-.23-.01-.45 0-.68 0-2.63 0-2.56 0-2.65-2.59-.04-1.17.42-1.41 1.39-1.26 1.08.17 1.65-.15 1.37-1.35.11 0 .23-.01.34-.01z" fill="#1f4867"/><path d="m109.21 240.23c1.77-.37 2.11-.92 1.7-2.8.79.71 1.73-.28 2.72.33-1.37.25-2.1.89-2.42 2.23-.18.77-1.29 1.1-2.11 1.24-.88.15-1.81.03-2.72-.12.84-.81 2.11.17 2.83-.88z" fill="#184678"/><path d="m109.21 235.83c.6.69.87 1.55.22 2.2-.63.62-1.48 1.11-2.53.56-.41-.21-.94-.2-1.27-.6 1.63 0 2.64-1.02 3.58-2.16z" fill="#174677"/><path d="m139.08 227.02c.42.02.8-.11 1.17-.3 1.99.79 3.85 1.78 5.16 3.56-.28.2-.49.22-.79-.06-1.57-1.55-3.54-2.4-5.54-3.2z" fill="#ebf4f5"/><path d="m46.94 238.54c.53-.14.82.25 1.16.52.99-.27 1.29.43 1.59 1.12.36.7 1.13.9 1.66 1.39-.04.3.62.11.39.52-.21.36-.45.28-.77.04-1.46-1.07-2.88-2.18-4.03-3.59z" fill="#ecf4f5"/><path d="m188.8 233.59c-.15-.83-.2-1.55 1.03-1.38s.76-.76.81-1.34c.61.02.7.46.51.86-.47.99-.8 2.22-2.35 1.86z" fill="#174674"/><path d="m155.8 232.49c.21-.52.22-.48.79-.56.47-.07 1.34.33 1.31-.43-.03-.69-.9-.35-1.38-.36-1.85-.04-3.71-.02-5.56-.01.45-.58 1.08-.25 1.61-.27 1.69-.05 3.37 0 5.06-.02.52-.01.71.15.71.7-.01.55-.23.66-.73.7-.61.05-1.28-.31-1.81.25z" fill="#f4f6f6"/><path d="m27.48 234.37c-1.62.02-3.24.04-4.86.04-.49 0-.97 0-1.43.22.09-.14.19-.41.28-.41 2.01-.04 4.02-.32 6.01.15z" fill="#204766"/><path d="m22.27 236.31c1.72-.57 3.48-.15 5.22-.21-1.73.5-3.48.13-5.22.21z" fill="#204766"/><path d="m30.26 232.26c.23-.61 1.34-.01 1.24-.68-.08-.56-1.11-.19-1.52-.69.41-.02.81-.02 1.22-.05.51-.04.72.14.72.68 0 .52-.17.74-.7.71-.32-.02-.64.01-.96.03z" fill="#f5f7f6"/><path d="m185.73 230.89c-.09.67.64.85.81 1.36-.86.01-1.72.02-1.28-1.26.03-.07.3-.07.47-.1z" fill="#f3f6f7"/><path d="m175.6 232.25c.19-.59 1.97.09 1.08-1.35.17-.01.35-.02.52-.03.41 1.53-.65 1.39-1.6 1.38z" fill="#f3f6f7"/><path d="m150.95 231.94c.89.15 1.85-.33 2.68.31-.88-.21-1.84.29-2.68-.31z" fill="#f5f7f7"/><path d="m83.7 232.26c-1.02.09-1.68-.18-1.33-1.4.17.01.35.02.52.03-.81 1.1.53.92.81 1.37z" fill="#f4f6f6"/><path d="m111.42 235.84h1.09c-.02.31.05.79-.3.81-.4.01-.53-.52-.79-.81z" fill="#184678"/><path d="m40.96 241.51c.63.13 1.17.43 1.66.84-.72.05-1.46.12-1.66-.84z" fill="#1f4867"/><path d="m186.27 236.92c.08-.19.16-.38.24-.57v2.73c-.08 0-.16-.01-.24-.03 0-.71 0-1.42 0-2.13z" fill="#2a4a62"/><path d="m110.85 237.19c-.25-.31-.52-.59-.73-.92-.6-.95.29-.3.47-.43.09.45.18.9.26 1.35z" fill="#184678"/><path d="m162.16 226.14c.09-.15.18-.31.26-.46.51-.14.75.26 1.06.6-.44-.04-.88-.09-1.32-.14z" fill="#d4edef"/><path d="m82.91 62.98c-.47 0-.93 0-1.4 0 .46-.39.93-.38 1.4 0z" fill="#314352"/><path d="m60.38 59.98c-.37.5-.9.23-1.36.27.37-.51.91-.13 1.36-.27z" fill="#294357"/><path d="m144.84 89.9c.59-.07 1.28.2 1.67-.52.53-.01.99.17 1.4.48l-.06.06c-.35.39-.95.08-1.3.48l-.06.06c-.73.36-1.32.29-1.65-.56z" fill="#18497d"/><path d="m127.34 134.07c.57-.57 1.28-.2 1.92-.27-.57.55-1.29.1-1.92.27z" fill="#254358"/><path d="m101.83 78.35c1.07.54 1.17 1.04-.02 1.57-.31.14-.53.45-.8.68.02-.42-.17-1.05.38-1.12.98-.14.39-.72.44-1.13z" fill="#f7f8f8"/><path d="m65.59 60.84c.55.05 1.14-.21 1.64.22-.55-.02-1.15.29-1.64-.22z" fill="#2a4354"/><path d="m156.35 121.69c.49.61 1.23.01 1.78.36.06.04.2.06.25.02 1.31-.97 1.31-.91 2.78-.94.86-.02 1.47.71 2.32.65.08-.01.3.31.26.4-.55 1.27.45 2.73-.48 3.94-1.3 2.12-3.39 3.01-5.66 3.49-1.1.23-2.31.41-3.42-.2-.55-.93-1.34-1.62-2.2-2.26.21-2.81 2.01-4.36 4.37-5.46z" fill="#18487f"/><path d="m100.46 148.34c1.91-.01 3.82 0 5.73-.04.48-.01.93.11 1.27.36 3.03 2.17 6.33 3.91 9.45 5.94-1.48 1.2-2.94-.03-4.39-.11-.61-.03-.05-.86-.18-1.41-.56.07-1.18 2.13-1.7-.19-.37.65-.52 1.21-1.02 1.51.51.43 1.2-.08 1.64.67-1.81-.37-1.35 1.78-2.54 2.13-.06.02-.09.44.22.54.26.09.61-.74.78.06.12.55-.26 1.82-.58 1.99-.23.13-.19.34-.09.42 1.17.93.01 2.22.5 3.27.17.35-.37.43-.68.43-3.02.01-6.03 0-9.05.01-.49 0-.81-.2-.87-.67-.08-.58-.33-1.38-.06-1.72.81-1-1.27-1.01-.52-1.78.46-.47.6-.73.58-1.52-.03-1.1-.27-2.2-.16-3.54-.53.82-1.1.81-1.75.44-.29-.16-.48-.32-.34-.62.25-.53.84-1.14-.45-.97-.11.01-.47-.63.22-.66.22-.01.45.1.6-.28-.81-.96-1.92.96-2.67-.22 1.94-1.45 4.24-2.38 6.06-4.04z" fill="#fafbfb"/><path d="m90.55 154.6c1.21-.86 2.52-1.55 3.85-2.21.06.41-.07.77-.26 1.12-.5-.28-.61.05-.7.44s.35 1.02-.24 1.15c-.76.16-1.59.18-2.28-.38-.09-.07-.25-.08-.37-.12z" fill="#fafbfb"/><path d="m95.48 153.12c-.21 1.07-.76.93-1.23.92-.07 0-.2-.22-.18-.26.28-.51.84-.19 1.41-.66z" fill="#fafbfb"/><path d="m95.15 154.89c-.36.36-.72.35-1.07.12-.04-.03 0-.3.08-.35.39-.27.69-.09.99.23z" fill="#fafbfb"/><path d="m57.09 94.29c.58-.03.58-.45.6-.87.65.02.74.61.97 1.02 3.18 5.65 6.73 11.06 10.72 16.18 1.05 1.35 1.08 1.38 2.11-.03 2.77-3.8 5.92-7.28 8.97-10.85.61-.71 1.19-1.52 2.17-1.82.21-.01.39.06.55.2.1.01.21.01.31.02.07 1.04-.65 1.68-1.26 2.32-3.51 3.73-6.65 7.75-9.81 11.77-.7.89-.66 1.48.06 2.35 3.19 3.82 6.44 7.58 10 11.06.43.42 1.07.76 1 1.53-.42.01-.84.01-.87.59-.72.09-1.04-.49-1.44-.89-3.16-3.21-6.19-6.55-9.05-10.03-.26-.32-.56-.6-.8-.93-.62-.85-1.08-.73-1.62.11-1.11 1.73-2.26 3.42-3.41 5.12-.24.35-.35.88-.93.88-.01-.42-.02-.84-.59-.87 1-2.3 2.6-4.24 4.02-6.27.64-.92 1.05-1.51.13-2.54-2.38-2.67-4.36-5.66-6.31-8.64-1.98-3.04-4.12-6.02-5.52-9.41z" fill="#18487c"/><path d="m61.78 147.47c-.73-1.52.15-3.48-.35-5.39-.2-.78.3-1.66.36-2.54.08-1.36-.35-2.66-.29-4 .08-1.53.69-1.86 2.18-1.7 1.43.15 2.88.31 4.34.22 1.77-.11 3.54.02 5.31.23.85.1 1.05.49 1.07 1.24.07 2.05 1.19 2.96 3.23 2.68.64-.09 1.24-.03 1.88.15 1.39.39 2.77.02 4.09-.41.33-.11.67-.52.92-.14.64.97 1.29.47 2.02.18.74-.29 1.41-.63 2.21.2.43.45 1.45.35 2.2.5 1.22.24 1.81 1.44 1.25 2.55-.53 1.05-.11 1.77 1.1 1.84.55.03 1.11-.06 1.64.03.55.09 1.4-.46 1.59.5.29 1.38-.24 2.41-1.26 2.69-.66.18-1.15-.39-1.9-.35-1.49.08-1.62.87-1.39 1.84.32 1.36-.3 1.65-1.41 1.6s-2.17-.01-3.11.72c-.35.27-.75.41-1.24.07-.87-.61-1.76.03-2.62.18-.53.09-.43.68-.33 1.16.28 1.41-.05 1.81-1.43 2.04-.97.16-1.88.71-2.91.28-.26-.11-.52.15-.69.37-.39.53-.64.93-1.32.17-.56-.62-2.22.27-2.26 1.13-.01.18-.01.37 0 .55.11 1.79.1 1.74-1.73 1.86-1.08.08-2.13.23-3.23.01-.91-.18-1.74.18-2.15 1.1-.33.74-1.16.67-1.25.26-.38-1.71-1.82-1.14-2.77-1.33-1.63-.34-2.31-.81-2-2.41.27-1.39-.13-1.81-1.45-1.85-.48-.01-.97-.22-1.48-.17-.57.05-1.41.79-1.5-.52-.07-.99-.15-2.03 1.33-1.96.71.03.93-.38 1.13-.95.23-.64.46-1.12 1.38-.66.82.41.77-.41.8-.94.05-.22.04-.45.04-1.03z" fill="#fefefe"/><path d="m83.48 127.18c-1.04-1.08-2.08-2.17-3.14-3.24-3.03-3.05-5.74-6.37-8.52-9.64-.45-.52-.63-.94-.02-1.74 2.55-3.31 5.15-6.56 7.86-9.74 1.3-1.53 2.97-2.78 3.83-4.69.56.05.77-.42 1.08-.73 2.43-2.41 4.81-4.86 7.27-7.24 1.75-1.69 3.62-3.26 5.41-4.91.36-.33.73-.3 1.13-.3 3.65 0 7.3.05 10.94-.03 1.13-.02 1.62.84 2.38 1.32.6.38 1.07.97 1.6 1.46 3.63 3.4 7.44 6.61 10.65 10.44 1.22 1.46 2.64 2.73 3.9 4.16 3.06 3.47 5.98 7.05 8.79 10.72.46.6.02.77-.25 1.1-4.09 5.03-8.5 9.76-13.17 14.26-.13.12-.22.29-.32.43-.05.3-.23.48-.53.52-.44.3-.83.66-1.12 1.12-.72.33-.96 1.3-1.86 1.4-.81.08-.76-.62-.89-1.07-.21-.75-.16-1.6-1.19-1.82-.26-.06-.26-.44-.3-.7-.84-1.12-1.27-2.26-.19-3.49.42-1.58.41-1.56 2.1-.98.48.16 1.05.26 1.32-.41.02-.12.06-.23.11-.34.37-.49.79-.98.1-1.54-.1-.07-.2-.14-.3-.2-.37-.2-.91-.08-1.1-.59 1.46-1.55 1.21-3.21.27-4.89-.8-1.43-1.01-2.9-.54-4.47.28-.95.25-1.89-.41-3.06-.08 2.14-1.21 3.49-2.33 4.87-.91 1.13-.94 2.43-.3 3.73.38.78.93 1.45 1.53 2.09.37.4.76.81.6 1.44-.33.59-.9.55-1.44.55-2.13 0-4.27.06-6.4-.03-1.25-.55-2.48-2.58-2.43-3.98.06-.11.15-.2.26-.27.28-.04.42.13.54.32.01 0 0 .04.03.04-.04-.07-.07-.14-.07-.23.41-.38.65-.13.86.22.06.07.1.15.11.24.03.32.02.63.01.95.01.18.15.09.11.04-.26-.38.08-.89-.25-1.27-.94-1.19.18-2.45-.13-3.81-.22.57-.37 1.07-.98 1.07-.18 0-.52-.03-.51-.08.14-.81-1.13-.97-.89-1.63.43-1.21.05-2.08-.71-2.95-.17-.2-.19-.51-.21-.78 0-.13.03-.26.08-.38.35-.34.79-.6.91-1.14.07-.32.25-.57.68-.5.21.03.17.49.42.27.16-.13.15-.42.04-.64-.1-.21-.27-.39-.47-.48-1.22-.57-1.56-1.31-.52-2.39.25-.26.27-.66.03-.88-.76-.69-1.11-1.79-2.15-2.2-.46-.01-.44-.84-1.04-.6-.41.27-.6.73-1.36.61-.64-.1-.95.81-.91 1.53.08 1.43.27 2.85-.07 4.27-.11.45.09.78.32 1.14.79 1.25.7 2.23-.26 3.43-.44.55-.66 1.16-.59 1.9.12 1.2-.91 2.68-2.13 3.1 1.16.22 1.85.9 2.13 1.98-.01.64-.3 1.19-.5 1.77-.15.34-.2.73-.48 1.01-.18.15-.39.26-.62.27-2.87.1-5.74.11-8.6-.07-.14-.01-.25-.1-.36-.18-.4-.6.04-1.03.32-1.47.32-.5.77-.9 1.13-1.37 1.45-1.92 1.41-3.29-.15-5.14-1.01-1.2-1.75-2.53-1.99-4.2-.47 1-.42 1.94-.24 2.88.32 1.67.2 3.26-.7 4.75-.66 1.09-.89 2.28-.63 3.55-.01.09 0 .21-.06.26-1.22 1.1-1.33 2.41-.64 3.8 1.87-.84 2.69-.58 3.68 1.32.15.29.24.57.56.72.42.2.82.45.72 1.02-.07.39-.31.47-1.37.51.57.71.88 1.43.22 2.18-.4.63-1.05 1.23-.32 2.04.09.1.2.17.32.23 1.66.65 3.39.54 5.11.54 5.19 0 10.38-.02 15.58-.01.72 0 1.44.09 2.16-.19.71-.27 1.07.2 1.11.8.04.65-.07 1.35-1.02 1.21-1.53-.23-3.07.34-4.61-.04-.08-.02-.2.17-.28.28-.85.07-2.04 1.16-2.2-.75-.03-.3-.22-.36-.46-.36-1.68 0-3.37-.01-5.05 0-.22 0-.52 0-.5.31.12 1.51-.75 1-1.53.8-.34-.09-.73-.05-1.09-.02-2.41.2-4.78-.25-7.18-.31-1.09-.03-1.74-1.03-2.47-1.7-1.8-1.63-3.51-3.39-5.26-5.1z" fill="#fefefe"/><path d="m122.12 131.06c3.84-3.6 7.5-7.37 10.93-11.37 1.49-1.74 3.03-3.44 4.57-5.18 2.61 3.4 4.83 7.16 7.23 10.79.19 1.04 1.01 1.75 1.4 2.7.27.66.25.89-.5 1.12-3.23.98-6.51 1.7-9.79 2.46-1.34.31-2.75.26-4.02.86-.43.23-.93-.05-1.36.2-2.92.37-5.83.76-8.75 1.1-.75.09-1.52.01-2.56.01 1.04-1.04 1.85-1.96 2.85-2.69z" fill="#fefefd"/><path d="m65.36 122.02c1.46-2.22 2.92-4.44 4.39-6.65.44-.66.69-1.14 1.49-.08 1.7 2.26 3.6 4.38 5.54 6.43 1.92 2.04 3.64 4.28 5.84 6.05 1.88 2.06 3.82 4.05 6.24 5.98-.83 0-1.32 0-1.81 0-.62-.3-1.31.05-1.92-.22-2.18-.43-4.37-.75-6.58-.89-.42-.29-.97.1-1.37-.27-1.46-.27-2.92-.54-4.38-.81-.41-.31-.96.08-1.37-.28-2.9-.95-5.92-1.42-8.81-2.4-1.03-.35-.79-.75-.46-1.33 1.04-1.85 2.13-3.69 3.2-5.53z" fill="#fefefe"/><path d="m90.86 129.41c.55-.67.64-1.27-.2-1.8-.28-.18-.48-.48-.2-.8.22-.26.5-.12.73.05.27.2.53.4.83.07.17-.2.16-.58-.02-.58-1.27 0-1.4-1.28-1.78-1.91-.78-1.32-1.52-.84-2.43-.48-.33.13-.66.26-.99.38.21-1.55-.98-3.43 1.05-4.58.61-.08.94.3 1.07.79.15.58-.44.56-.77.72-.39.18-.73.41-.68.88.06.61.5.79 1.05.81 9.95.02 19.9 0 29.84.01.71 0 1.47-.16 2.11.36.1.32.44.62.11.99-.61-.62-1.4.6-1.91-.12-.31-.44-.59-.68-1.08-.53-.68.2 0 .7-.18 1.02-.06.11-.17.2-.25.3-.39-.21-.81-.09-1.21-.09-7.85-.05-15.7-.01-23.7-.03.26.8.69 1.51.51 2.35-.11.49.24.63.66.64.37.01.73.01 1.1.01h20.68c.77 0 1.56-.09 2.25.39-.03.13-.06.26-.09.4 1.85.21 1.21 1.85 1.65 2.87.06.15.26.23.4.34-.37.37-.74.74-1.1 1.1-.15.03-.35-.13-.45.1 0 .01.12.1.18.17-.92 1.52-2.54.75-3.79 1.01-1.6.34-3.33.1-5 .1.05-.38-.18-.9.36-1.06.69-.2.58.27.47.68.54.01 1.1.14 1.6.01.77-.2 1.52-.27 2.29-.13.33.06.61.21.76-.25.12-.39.31-.76-.01-1.15-.36-.43-.52.09-.78.13-.4.07-.81.09-1.22.09-6.34.01-12.68 0-19.02.01-1.12 0-2.11-.41-3.09-.86.59-.49 1.3-.35 1.97-.35 7.66-.01 15.32-.01 22.98-.01.46 0 .91.02 1.37-.04.38-.06.72-.21.82-.61.13-.51-.18-.75-.63-.87-.72-.15-1.45-.11-2.18-.11-7.28 0-14.56 0-21.84-.01-.78 0-1.58.16-2.24-.41z" fill="#fafbfb"/><path d="m111.43 135.45h4.26c-2.8 2.29-5.35 4.37-7.97 6.51-.15-.58-.38-1.06-.39-1.55-.02-.63-.37-.61-.8-.61-1.28.01-2.56 0-3.84 0-2.13 0-2.13 0-2.26 2.23l.03-.03c-1.05.34-1.14-.81-1.74-1.18-1.13-.69-2.16-1.58-3.12-2.51-.97-.93-2.17-1.6-3.12-2.88h5.19c1.72.28 3.45.11 5.17.11 2.87-.01 5.73.15 8.59-.09z" fill="#fafbfb"/><path d="m101.03 142.8c-.19-.27-.38-.54-.57-.8 0 0-.03.03-.03.03h6.7c.11.4-.36.47-.4.76-1.9.28-3.8.25-5.7.01z" fill="#f2f7f8"/><path d="m111.43 135.45c-.14.33-.45.25-.7.25-4.12 0-8.24 0-12.36 0-.26 0-.56.07-.7-.26 4.59 0 9.18 0 13.76.01z" fill="#23455d"/><path d="m101.03 142.8c1.9-.01 3.8-.01 5.7-.02-1.9.51-3.8.5-5.7.02z" fill="#22455f"/><path d="m37.69 115.39c.03-.64-.3-1.31.2-1.89-.09.63.4 1.07.53 1.63-.24.08-.48.17-.73.26z" fill="#e2f0f2"/><path d="m118.02 133.23c-.25 0-.53.08-.74-.01-.16-.07-.08-.33.08-.43.34-.2.67-.16.92.18-.08.09-.17.17-.26.26z" fill="#fefefe"/><path d="m85.11 133.53c.64.04 1.33-.31 1.92.22-.64-.05-1.32.23-1.92-.22z" fill="#25445b"/><path d="m153.67 144.72c.5.49.19 1.09.21 1.64-.43-.5-.17-1.09-.21-1.64z" fill="#23455c"/><path d="m71.42 131.28c.45.12 1-.25 1.37.28-.47-.05-1 .22-1.37-.28z" fill="#24435b"/><path d="m150.97 128.03c.05.19-.08.24-.22.24-.16.01-.36.09-.43-.14-.01-.04.11-.13.18-.17.17-.09.34-.14.47.07z" fill="#18487f"/><path d="m77.17 132.37c.45.14.99-.23 1.37.27-.48-.03-1 .24-1.37-.27z" fill="#254358"/><path d="m130.59 132.64c.39-.48.9-.18 1.36-.2-.4.39-.9.18-1.36.2z" fill="#304351"/><path d="m144.84 89.9c.48.4 1.05.52 1.66.56 1.2.41 2.41.81 3.61 1.24.69.25 1.09.46.57 1.43-2.76 5.23-6.01 10.13-9.52 14.87-.96 1.3-1.95 2.58-2.95 3.84-.5.63-.68.54-1.05.06-1.42-1.79-2.83-3.6-4.27-5.38-1.3-1.61-2.58-3.24-3.98-4.76-2.32-2.51-4.69-4.97-7.1-7.39-2.48-2.49-4.83-5.13-7.64-7.27-.47-.91-1.51-1.24-2.38-2.34.98.55 1.69.44 2.38.46 3.87.12 7.72.45 11.55 1.07 1.24.2 2.52.22 3.77.32.43.28.94-.02 1.37.22 1.62.47 3.25.81 4.94.89.41.29.95-.09 1.35.26 2.53.79 5.09 1.43 7.69 1.92z" fill="#fefefe"/><path d="m82.61 98.09c-2.31 1.93-4.06 4.38-6.01 6.64-2.13 2.47-4.11 5.08-6.18 7.67-4.92-5.92-8.97-12.35-12.73-18.98-.43-.83-.18-1.14.74-1.45 3.63-1.23 7.28-2.38 11.03-3.22.33-.58.99-.19 1.41-.48 2.42-.24 4.76-.84 7.12-1.36.5-.39 1.13.04 1.64-.28 3.12-.3 6.23-.78 9.35-1.04 2.09-.18 4.21-.56 6.51-.29-4.26 3.77-8.24 7.64-12.05 11.68-.29.36-.36.88-.83 1.11z" fill="#fefefe"/><path d="m98.88 83.76c1.67-1.32 3.1-2.4 4.47-3.55.45-.38.64-.32 1.06.04 1.36 1.15 2.79 2.22 4.44 3.51-3.4 0-6.49 0-9.97 0z" fill="#f7f8f8"/><path d="m53.82 92.61c-.82.36-1.64.72-2.46 1.08.62-1.54 1.89-1.73 3.32-1.58-.12.44-.74.05-.86.5z" fill="#eef6f7"/><path d="m54.66 89.87c.36.57.71 1.14 1.07 1.7-.29.32-.64.51-1.07.54.54-.75-.18-1.49 0-2.24z" fill="#eef6f7"/><path d="m70.86 88.26c-.36.47-.99.17-1.41.48.14-1.12.97-.22 1.41-.48z" fill="#1e4561"/><path d="m82.61 98.09c.27-.37.31-.92.82-1.1-.09.38-.18.76-.27 1.14-.18-.02-.36-.03-.55-.04z" fill="#1c4462"/><path d="m79.63 86.63c-.48.51-1.1.14-1.64.28.47-.55 1.08-.22 1.64-.28z" fill="#274257"/><path d="m137.16 87.99c-.44-.13-.98.25-1.35-.26.45.03.97-.23 1.35.26z" fill="#264156"/><path d="m130.86 86.84c-.47-.01-.98.27-1.37-.22.46.03.97-.18 1.37.22z" fill="#23445c"/><path d="m158.28 67.7c-.45-.32-.15-.9-.54-1.24.63.09.59.61.79.96-.08.09-.17.18-.25.28z" fill="#e2f1f2"/><path d="m158.56 69.35c-.48-.4-.2-.91-.21-1.38.39.41.18.91.21 1.38z" fill="#e2f1f2"/><path d="m122.37 129.34c.18-.17.36-.35.53-.52.77.14.39.43.11.73-.39.42-.56.28-.64-.21z" fill="#18497f"/><path d="m146.55 90.41c.17-.87.84-.39 1.3-.48-.17.86-.84.39-1.3.48z" fill="#18487f"/><path d="m118.54 171.57c-9.72 0-19.43 0-29.38 0 1.02-.79 1.3-1.72 1.14-2.81-.08-.52.14-.72.68-.72 9 .02 17.99.02 26.99.03.09 0 .18.15.27.23h.01c-.72.74.15 1.45.04 2.19.09.36.62.61.25 1.08z" fill="#18477e"/><path d="m87.86 166.39c-.03-1.65.19-1.9 1.84-1.9 9.72-.01 19.43 0 29.15 0 .44 0 .89-.1 1.27.31.39.41.83.8.59 1.4-.22.53-.66.78-1.3.77-2.01-.04-4.01-.01-6.02-.01-7.89 0-15.78 0-23.67.01-.72 0-1.38-.01-1.86-.58z" fill="#184880"/><path d="m118.54 171.57c-.08-.36-.16-.72-.25-1.08.34.27.81.45.73 1-.01.05-.31.05-.48.08z" fill="#25445a"/><path d="m26 114.57c1.84 0 3.38 1.45 3.43 3.23.04 1.66-1.79 3.33-3.68 3.35-1.79.02-3.44-1.52-3.46-3.23-.01-1.97 1.5-3.34 3.71-3.35z" fill="#18477d"/><path d="m180.49 112.94c-1.05-1.25-.57-3.38.99-4.35 1.52-.94 2.98-.57 4.37.27.97.59 1.35 2.15.99 3.57-.41 1.6-2.91 2.69-4.66 2-.4-.16-.75-.43-1.13-.65-.17-.3-.25-.64-.56-.84z" fill="#18487f"/><path d="m180.49 112.94c.6 0 .59.41.55.84-.36-.17-.55-.44-.55-.84z" fill="#20435e"/><path d="m178.34 133.74c1.92-.01 3.07 1.53 3.46 3.14.3 1.23-.84 2.74-2.35 3.32-1.53.59-4.2-.86-4.65-2.52-.49-1.8.6-3.55 2.43-3.93.36.18.73.18 1.11-.01z" fill="#18487f"/><path d="m178.34 133.74c-.37.86-.74.87-1.12.01.37-.41.74-.42 1.12-.01z" fill="#1a4568"/><path d="m136.66 32.28c1.51.54 2.15 1.45 2.17 3.1.02 1.39-1.21 3.33-2.38 3.75-1.15.41-2.65-.04-3.54-1.08-.94-1.08-.92-3.24.14-4.45.45-.52.82-1.23 1.64-1.32.66-.18 1.32-.17 1.97 0z" fill="#184880"/><path d="m136.66 32.28c-.66 0-1.31 0-1.97 0 .66-.42 1.32-.42 1.97 0z" fill="#254459"/><path d="m33.25 149.09c.55-.6 1.2-1.14 1.62-1.82s1.05-1.1 1.52-1.69c.61 1.08 1.17 2.09 1.77 3.16-1.59.33-3.09.64-4.59.95-.55.04-.47-.26-.32-.6z" fill="#18487e"/><path d="m33.25 149.09c.01.25.07.48.32.6-.28.47-.66.18-1.06.25.17-.45.42-.68.74-.85z" fill="#22465f"/><path d="m83.14 181.7v5.79c-.85-.23-1.64-.47-2.45-.64-.75-.16-.9-.49-.48-1.13.91-1.39 1.8-2.78 2.71-4.18.07.06.14.11.22.16z" fill="#18477b"/><path d="m24.1 85.78h5.46c.47 0 .78-.01.51.67-.34.86-.49 1.8-.77 2.89-1.65-1.14-3.27-2.25-5.2-3.56z" fill="#18487e"/><path d="m57.96 242.35c-1.89-.31-2.4-1.28-2.27-2.94.16-2.04.03-4.1.04-6.14 0-.56.08-1.14-.79-1.03-.64.08-.57-.39-.6-.8-.03-.51.23-.61.67-.6 1.32.01 2.64.02 3.96 0 .46-.01.66.15.64.63-.02.44-.01.88-.62.78-1.03-.17-1.06.41-1.05 1.19.04 2.94.02 5.89.02 8.91z" fill="#d8e0e1"/><path d="m49.69 240.18c-.63-.24-.79-1.13-1.59-1.12.58-1.04 1.71-1.5 2.54-2.27.33-.31 1.02.55 1.55.88-.66.41-1.25.85-1.42 1.71-.09.52-.46.88-1.08.8z" fill="#18487f"/><path d="m46.88 233.38c.26.34.48.62.73.95-.55.1-1.02.2-1.45-.19-.38-.34-.54-.75-.42-1.21.11-.43.54-.43.91-.43.27 0 .56-.06.82.02.19.05.55-.33.6.33.06.71-.33.42-.6.47-.18.03-.35.03-.59.06z" fill="#18487f"/><path d="m60.41 227.83c.27.28.55.55.82.83-.46.09-.94.7-1.36-.11-.33-.67.16-.63.54-.72z" fill="#18487f"/><path d="m44.78 234.96c-.28-.41-.22-.83-.02-1.25.01-.01.31.08.44.17.42.31.26.6-.07.86-.12.09-.24.15-.35.22z" fill="#18487f"/><path d="m43.42 232.25c.18-.6 1.97.09 1.09-1.36.74-.14.51.42.55.77.05.41-.15.57-.55.56-.36-.01-.73.02-1.09.03z" fill="#f7f8f8"/><path d="m58.21 229.23c.17.02.39.01.39.25s-.21.25-.39.25-.39-.01-.39-.25.21-.24.39-.25z" fill="#18487f"/><path d="m61.07 229.35c.24.35.31.71.75.9-.25.07-.34.13-.4.11-.43-.15-.79-.34-.35-1.01z" fill="#18487f"/><path d="m43.68 235.29c.48.31.7.55.76.89.01.06-.24.24-.27.22-.33-.21-.29-.58-.49-1.11z" fill="#18487f"/><path d="m60.4 230.24c-.11.08-.22.21-.29.19-.09-.02-.2-.16-.2-.25-.02-.19.1-.34.3-.28.09.02.12.19.19.34z" fill="#18487f"/><path d="m45.14 233.03c-.09.04-.25.15-.29.12-.12-.1-.19-.26-.28-.39.07-.03.16-.09.22-.07.15.04.35.06.35.34z" fill="#18487f"/><path d="m45.63 236.07c-.17.09-.34.18-.51.27-.1-.23-.05-.46.15-.57.34-.19.3.14.35.31 0 .01.01-.01.01-.01z" fill="#18487f"/><path d="m44.5 236.06c.04-.38-.12-.81.27-1.1h.01c.24.45.12.81-.28 1.1z" fill="#18487f"/><path d="m141.41 230.82c.91 0 1.82.01 2.73-.01.46-.01.77.04.78.64 0 .58-.18.8-.78.79-1.91-.03-3.82-.02-5.74 0-.54.01-.7-.2-.71-.72 0-.53.18-.73.71-.71 1 .03 2.01.01 3.01.01z" fill="#d1dadc"/><path d="m116.97 240.36c.58-.28.99-.19 1.73.01-.76.45-1.17.41-1.73-.01z" fill="#18487f"/><path d="m119.47 240.28c.2-.02.34.03.31.18-.02.09-.17.17-.27.21-.06.02-.15-.07-.23-.11.07-.1.14-.2.19-.28z" fill="#18487f"/><path d="m172.46 238.15c-.43.43-.77.49-1.25.12.43-.13.74-.37 1.25-.12z" fill="#18487f"/><path d="m38.61 235.79c-.52-.16-1.43.36-1.66-.35-.25-.78-.09-1.7-.06-2.55.01-.33.36-.37.63-.38.41-.01.82-.01 1.23-.01 1.94 0 1.81.01 1.95 1.88.13 1.85-1.08 1.34-2.09 1.41z" fill="#18477d"/><path d="m104.13 161.74c1.18 0 2.37.04 3.55-.01.74-.03 1.03.16 1.02.96-.01.77-.22 1-.99.99-2.5-.05-5-.05-7.5 0-.78.02-.88-.31-.87-.96.01-.61.03-1.03.85-.99 1.3.06 2.63.01 3.94.01z" fill="#18487f"/><path d="m99.49 160.64c-.28-1.97.84-2.02 2.24-1.95 1.91.1 3.83.07 5.74.01.94-.03 1.13.46 1.21 1.22.09.96-.59.71-1.08.71-2.73.02-5.46.01-8.11.01z" fill="#18487d"/><path d="m103.96 157.63c-1.18 0-2.37-.04-3.55.01-.71.03-.85-.29-.8-.89.04-.52-.15-1.08.76-1.06 2.41.05 4.82.04 7.23 0 .71-.01.85.28.8.89-.04.52.15 1.11-.76 1.06-1.22-.06-2.45-.01-3.68-.01z" fill="#18487f"/><path d="m104.03 154.61c-1.05 0-2.09-.04-3.14.01-.74.04-1.03-.15-1.02-.96.01-.75.2-1.01.98-1 2.14.05 4.27.05 6.41 0 .77-.02.89.3.87.96-.02.6 0 1.05-.84 1-1.08-.06-2.17-.01-3.26-.01z" fill="#18487f"/><path d="m103.88 151.6c-1.04 0-2.09.01-3.13 0-.37-.01-.96.16-.82-.52.1-.53-.1-1.38.84-1.39 2.18-.03 4.36 0 6.54-.01.78 0 .81.51.84 1.1.04.67-.22.86-.86.83-1.14-.04-2.28-.01-3.41-.01z" fill="#18487e"/><path d="m100.98 161.04c1.55-.15 3.1-.29 4.65.34-1.54 0-3.08 0-4.63 0-.01-.11-.01-.23-.02-.34z" fill="#fefefe"/><path d="m101.24 157.98h4.17c-.71.57-2.78.67-4.17 0z" fill="#fefefe"/><path d="m109.27 155.95c.09.23-.05.28-.17.26-.11-.01-.25-.08-.3-.17-.08-.14.04-.25.18-.24.11.02.21.11.29.15z" fill="#fefefe"/><path d="m106.5 161.11c.25-.24.53-.24.82-.08-.24.32-.54.06-.82.08z" fill="#fefefe"/><path d="m117.43 128.26c-8.52 0-17.05 0-25.58 0 .84-1.8.76-2.4-.58-3.81h14.8c3.33 0 6.66-.02 9.99.02.37 0 1.1-.42 1.09.52-.97 1.17-.94 1.87.15 2.79.18.15.11.31.13.48z" fill="#184880"/><path d="m87.84 123.3c-.82-.25-.97-.89-.8-1.58.22-.88 1.01-.87 1.77-.87-.18-.54-.58-.81-.97-1.09-.57-1.21-.29-2.38.35-3.43.98-1.62 1.24-3.25.79-5.13-.29-1.23-.2-2.59.99-3.78-.04 2.38 1.06 4.04 2.46 5.66 1.33 1.53 1.11 3.11-.55 5.27-.52.67-1.07 1.32-1.61 1.97-.18.59.24.55.6.57 5.58.09 11.15-.23 16.72-.09 3.29.09 6.57 0 9.86.14.44.04.25.95.97.67.34-.13.94-.27.94.36s-.36 1.17-1.11 1.13c-1.23-.06-2.46.02-3.68-.01-3.51-.08-7.02.22-10.53.12-3.78-.11-7.56-.19-11.33-.1-1.63.04-3.27-.17-4.87.19z" fill="#18487e"/><path d="m107.83 116.74c-.04 1.54 1.06 2.6 1.66 3.86-.34.34-.71.31-1.08.05-.24-.36-.15-.84-.4-1.2-.06-.1-.11-.21-.17-.32-.22-.55-.54-.96-1.22-.87-1.46.02-2.91.03-4.36.01-.54-.01-1.1.05-1.54-.38-.21-.51-.99-.7-.79-1.43-.82.43-1.27-.77-2.16-.44 1.48-.26 2.28-1.07 2.66-2.44.07-.25.2-.34.09-.67-.3-.91.21-1.68.75-2.3.79-.89.99-2.04.23-2.9-.55-.62-.49-1.15-.3-1.94.24-1.05.09-2.23-.06-3.33-.1-.73.47-2.31 1.07-2.62.71-.37.3.71.7.52.35-.17.36-.74.83-.85.36 1.08-.47 1.76-.88 2.56-.56 1.09-.54 1.18.71 1.2.79.01 1.59.05 2.41-.04-.22-1.12-1.34-1.75-1.19-2.9.7-.29 1.03.3 1.23.7.19.39.43.7.74.91 1.01.69 1.05 1.38.16 2.19-.59.53-.53.85.24 1.28.58.33 1.85.58 1.01 1.83-.16.24-.01.75-.48.68-.53-.07.12-.69-.42-.91-.39.51-.2 1.63-1.3 1.53-.81-.14-1.62-.23-2.45-.16-.48.04-.77.26-.74.78.03.46.35.59.74.64.99.11 1.91.04 2.44-.98.49.89 1.29 1.63 1.29 2.78 0 .23.18.45.07.75-.09.25-.85.09-.38.6.29.31.47-.04.63-.24.13-.17.29-.25.43-.06.07.09.12.29.07.38-.16.3-.38.58-.59.89 1.45.54 1.01-.8 1.35-1.42 1.22.59.57 1.74.84 2.56.13.39-.66-.17-.89.35 1.27.23.66.99.42 1.66-.27-.07-.55-.44-.82 0-.17-.11-.37-.2-.55-.31-.27-2.07-1.67-2.23-3.35-2.05-.81.09-1.64-.01-2.46.03-.55.03-1 .22-1.03.86-.03.74.54.75 1.04.77 1.41.05 2.82 0 4.24.02.55.01 1.11-.02 1.56.37z" fill="#f8f9f9"/><path d="m90.86 129.41c8.86.01 17.73.02 26.59.03.41.52.72 1.05.35 1.74s-1 .53-1.57.53c-7.62.01-15.24.02-22.86-.01-.94 0-1.89.11-2.83-.11-.96-.89-.14-1.51.32-2.18z" fill="#18487f"/><path d="m117.73 120.03c-.74-.95-1.67-1.73-2.26-2.83-.8-1.48-.82-3.01.19-4.16 1.43-1.64 2.62-3.26 2.33-5.73 1.35 1.37 1.65 2.32 1.05 4.66-.35 1.36-.04 2.44.55 3.57.31.58.58 1.2.77 1.83.45 1.45.05 2.51-1.23 3.49-.05.03-.11.06-.16.09-.31-.04-.53-.25-.8-.38-.21-.12-.31-.34-.44-.54z" fill="#18487f"/><path d="m87.84 123.3c.26-.27.61-.52.96-.46 2.7.41 5.44.07 8.12.05 4.43-.03 8.86.63 13.32-.01 2.39-.34 4.87-.15 7.3-.04.92.04 1.5.01 1.56-1.1-.55.02-1.03.9-1.63.23-.33-.37.25-.51.25-.81.04-.2.16-.33.34-.39.12-.02.25-.01.37.03.28.15.57.26.9.23.39.03.79-.09 1.16.11.28.78.25 1.41-.73 1.62.28.01.62-.06.75.33-.01.08-.03.16-.05.24-10.88-.01-21.75-.02-32.62-.03z" fill="#18487f"/><path d="m100.73 117.89c2.19.01 4.39.01 6.58.02.36.39.44.95.85 1.31l-.01-.01c.31.78-.07 1.16-.79 1.19-2.14.1-4.28.1-6.41-.01-.49-.02-1.06-.16-.79-.92.19-.53.38-1.05.57-1.58z" fill="#18487f"/><path d="m104.81 100.32c.63 1.06 1.26 2.11 1.96 3.28-1.51 0-2.83-.04-4.14.01-.92.04-.81-.36-.5-.93.57-1.05 1.34-2.01 1.64-3.2.89-.41.55.75 1.04.84z" fill="#18487f"/><path d="m118.26 120.85c-.09.03-.18.05-.27.08-.31.13-.63.08-.94.08-8.69 0-17.38 0-26.07 0-.32 0-.64.05-.94-.09-.42-.4.06-.45.24-.61.57.67 1.3.19 1.94.21 2.32.1 4.65.06 6.98.08.28 0 .55-.05.72-.3 2.83-.13 5.66-.26 8.48.07.31.34.72.2 1.1.23 2.36 0 4.71.01 7.07 0 .46 0 1.06.19 1.17-.57.17.1.34.21.51.31.19.17.15.34.01.51z" fill="#e0f1f3"/><path d="m90.54 131.58c2.3-.38 4.6.05 6.9.02 6.11-.09 12.23-.03 18.34-.03 1.97 0 2.19-.28 1.67-2.14.84.26.97.93.78 1.62-.17.63-.71.82-1.39.82-8.75-.03-17.5-.04-26.25-.05-.01-.08-.03-.16-.05-.24z" fill="#19466e"/><path d="m105.98 108.81c.09 1.03-.21 1.63-1.41 1.38-.39-.08-.82-.06-1.22 0-.95.15-.99-.37-1-1.11 0-.75.07-1.22 1.01-1.11.67.08 1.36.04 2.04.01.42-.02.56.2.59.55-.01.1-.01.19-.01.28z" fill="#184980"/><path d="m108.4 120.38c-2.83-.02-5.65-.05-8.48-.07.01-.3-.16-.65.24-.84.05.55.45.59.88.59 2.07 0 4.14-.02 6.21.01.64.01.92-.24.9-.86.19.36.86.63.25 1.17z" fill="#224661"/><path d="m120.5 123.09c-.36-.31-.78.05-1.33-.17.98-.3 1.26-.97 1.31-1.78 1.08.94 1.08 1.24.02 1.95z" fill="#18487e"/><path d="m109.36 117.12c.13.6.25 1.2.39 1.83-.55-.31-.55-.31-.39-1.83z" fill="#f8f9f9"/><path d="m108.1 110.82c-.03.05-.11.28-.21.29-.39.04-.3-.34-.38-.55-.07-.18-.01-.35.24-.32.27.03.35.22.35.58z" fill="#f8f9f9"/><path d="m108.4 117.04c.26.24.55.47.25.93-.41-.25-.19-.63-.25-.93z" fill="#f8f9f9"/><path d="m120.49 121.13c-.46.01-.92.01-1.39.02-.09-.05-.13-.1-.11-.16.02-.07.05-.1.08-.1 0 0 .07-.02.07-.02.45.11.98-.25 1.35.26z" fill="#234660"/><path d="m106.56 123.96c-5.32 0-10.64 0-15.96 0 0-.05 0-.09.01-.14h15.97c-.01.04-.01.09-.02.14z" fill="#fefefe"/><path d="m107.94 123.73h8.5c0 .15 0 .3-.01.45-2.85-.12-5.7.27-8.49-.45z" fill="#fefefe"/><path d="m115.37 133.55c.95-.04-.3-1.88 1.11-1.37.4.14.23.92.18 1.21-.11.6-.76.38-1.29.16z" fill="#fefefe"/><path d="m116.81 128.94c-.44.21-.74.22-1.03.06-.02-.01.04-.26.11-.3.37-.21.55.12.92.24z" fill="#fefefe"/><path d="m103.92 138.43c-.68 0-1.36-.01-2.04 0-.64.01-1.19.11-1.2-.91-.02-1.07.51-1.03 1.24-1.02 1.5.03 3 .06 4.5-.01.9-.05.87.42.91 1.07.04.76-.27.92-.95.88-.82-.05-1.64-.01-2.46-.01z" fill="#184980"/><path d="m90.03 120.92c9.32 0 18.64.01 27.95.01-.09.08-.18.15-.27.23-8.8 0-17.59.01-26.39 0-.43-.01-.91.13-1.29-.24z" fill="#234660"/><path d="m107.83 116.74c-2.14.01-4.29.02-6.43.02-.49 0-1.08.12-.95-.71.11-.69-.16-1.68.92-1.73 1.87-.09 3.74-.02 5.61-.03.65 0 .89.34.87.95-.02.51-.02 1.01-.02 1.5-.01.01 0 0 0 0z" fill="#18477e"/><path d="m107.04 113.74c-2.2 0-3.88 0-5.7 0 .64-.84.39-2.17 1.04-2.59.68-.44 1.86-.24 2.8-.11 1.57.2.66 1.89 1.86 2.7z" fill="#18487e"/><path d="m101.86 104.71c1.23 0 2.37.01 3.5 0 .49-.01.94-.01.84.69-.09.67.12 1.57-.78 1.74-.88.16-1.82.02-2.73.04-.49.01-.6-.23-.61-.67-.01-.58.14-1.17-.22-1.8z" fill="#18487d"/><path d="m108.16 119.22c-.59-.24-.73-.76-.85-1.31.62.22.7.78.85 1.31z" fill="#224661"/><path d="m119.07 120.89c.01.09.02.18.03.26-.32 0-.65.04-.85-.3-.01-.17-.01-.34-.02-.51.45-.06.57.34.84.55z" fill="#18487e"/></svg>