<svg xmlns="http://www.w3.org/2000/svg" xmlns:xlink="http://www.w3.org/1999/xlink" width="33" height="41" viewBox="0 0 264 328"><defs><clipPath id="b"><rect width="264" height="328"/></clipPath></defs><g id="a" clip-path="url(#b)"><rect width="264" height="328" fill="#404040"/><rect width="261" height="325" transform="translate(2 2)" fill="none"/><line x1="45" y2="66" transform="translate(87.5 203.5)" fill="none" stroke="#fff" stroke-width="4"/><line x1="53" y1="84" transform="translate(132.5 203.5)" fill="none" stroke="#fff" stroke-width="4"/><line x2="27" y2="88" transform="translate(132.5 203.5)" fill="none" stroke="#fff" stroke-linecap="round" stroke-width="4"/><line y1="324" transform="translate(1.5 1.5)" fill="none" stroke="#fff" stroke-linecap="round" stroke-width="6"/><line x2="261" transform="translate(1.5 1.5)" fill="none" stroke="#fff" stroke-linecap="round" stroke-width="6"/><line x1="10" y1="50" transform="translate(233.5 276.5)" fill="none" stroke="#fff" stroke-linecap="round" stroke-width="4"/><line x2="24" y2="25" transform="translate(238.5 301.5)" fill="none" stroke="#fff" stroke-linecap="round" stroke-width="4"/><line x2="7" y2="29" transform="translate(213.5 281.5)" fill="none" stroke="#fff" stroke-width="4"/><line x1="23" y1="16" transform="translate(220.5 310.5)" fill="none" stroke="#fff" stroke-linecap="round" stroke-width="4"/><line y1="325" transform="translate(262.5 1.5)" fill="none" stroke="#fff" stroke-linecap="round" stroke-width="6"/><line x2="261" transform="translate(1.5 326.5)" fill="none" stroke="#fff" stroke-linecap="round" stroke-width="6"/><line x1="33" y2="70" transform="translate(38.5 256.5)" fill="none" stroke="#fff" stroke-width="4"/><line x1="16" y1="13" transform="translate(71.5 256.5)" fill="none" stroke="#fff" stroke-width="4"/><line x1="12" y1="36" transform="translate(87.5 269.5)" fill="none" stroke="#fff" stroke-width="4"/><line y1="21" x2="20" transform="translate(79.5 305.5)" fill="none" stroke="#fff" stroke-width="4"/><line x1="134" y2="29" transform="translate(99.5 276.5)" fill="none" stroke="#fff" stroke-width="4"/><line x2="8" y2="49" transform="translate(71.5 256.5)" fill="none" stroke="#fff" stroke-linecap="round" stroke-width="4"/><line x1="12" y1="8" transform="translate(79.5 305.5)" fill="none" stroke="#fff" stroke-linecap="round" stroke-width="4"/><line x1="53" y2="35" transform="translate(1.5 291.5)" fill="none" stroke="#fff" stroke-linecap="round" stroke-width="4"/></g></svg>