<svg xmlns="http://www.w3.org/2000/svg" xmlns:xlink="http://www.w3.org/1999/xlink" width="100" height="100" viewBox="0 0 100 100"><defs><filter id="a" x="1.5" y="22.5" width="65" height="63" filterUnits="userSpaceOnUse"><feOffset dx="3" dy="3" input="SourceAlpha"/><feGaussianBlur stdDeviation="4.5" result="b"/><feFlood flood-opacity="0.459"/><feComposite operator="in" in2="b"/><feComposite in="SourceGraphic"/></filter><linearGradient id="c" x1="0.256" y1="0.171" x2="1.581" y2="1.3" gradientUnits="objectBoundingBox"><stop offset="0" stop-color="#306998"/><stop offset="1" stop-color="#306998"/></linearGradient><linearGradient id="d" x1="1.415" y1="1.879" x2="0.943" y2="1.221" gradientUnits="objectBoundingBox"><stop offset="0" stop-color="#fbde24"/><stop offset="1" stop-color="#fbde24"/></linearGradient><clipPath id="f"><rect width="100" height="100"/></clipPath></defs><g id="e" clip-path="url(#f)"><rect width="62" height="79" rx="4" transform="translate(30 11)" fill="#0c4e98"/><rect width="62" height="20" transform="translate(30 51)" fill="#0c69d1"/><rect width="62" height="20" transform="translate(30 31)" fill="#0e76eb"/><path d="M4,0H58a4,4,0,0,1,4,4V20a0,0,0,0,1,0,0H0a0,0,0,0,1,0,0V4A4,4,0,0,1,4,0Z" transform="translate(30 11)" fill="#2b8fff"/><g transform="matrix(1, 0, 0, 1, 0, 0)" filter="url(#a)"><rect width="38" height="36" rx="4" transform="translate(12 33)" fill="#0c69d1"/></g><text transform="translate(19 61)" fill="#fff" stroke="#fff" stroke-width="1" font-size="26" font-family="SegoeUI, Segoe UI"><tspan x="0" y="0">W</tspan></text><path d="M32.175,6.4a37.065,37.065,0,0,0-6.2.529c-5.492.97-6.489,3-6.489,6.745v4.946H32.463v1.649H14.613a8.1,8.1,0,0,0-8.108,6.579,24.252,24.252,0,0,0,0,13.188c.923,3.842,3.126,6.579,6.9,6.579h4.462V40.684a8.247,8.247,0,0,1,8.108-8.061H38.937a6.538,6.538,0,0,0,6.489-6.594V13.672c0-3.517-2.967-6.158-6.489-6.745A40.488,40.488,0,0,0,32.175,6.4Zm-7.019,3.978a2.473,2.473,0,1,1-2.435,2.48A2.462,2.462,0,0,1,25.156,10.375Z" transform="translate(40.486 -6.262)" fill="url(#c)"/><path d="M61.853,35.054v5.762a8.324,8.324,0,0,1-8.108,8.228H40.781a6.62,6.62,0,0,0-6.489,6.594V67.995c0,3.517,3.059,5.585,6.489,6.594a21.723,21.723,0,0,0,12.964,0c3.267-.946,6.489-2.85,6.489-6.594V63.049H47.27V61.4H66.723c3.772,0,5.178-2.631,6.49-6.579,1.355-4.065,1.3-7.974,0-13.188-.932-3.754-2.713-6.579-6.49-6.579ZM54.561,66.346a2.473,2.473,0,1,1-2.435,2.465A2.449,2.449,0,0,1,54.561,66.346Z" transform="translate(25.678 -21.049)" fill="url(#d)"/></g></svg>