<?xml version="1.0" encoding="utf-8"?>
<svg viewBox="0 0 500 500" xmlns="http://www.w3.org/2000/svg">
  <path fill-rule="evenodd" d="M 134.54 193.55 C 5.095 327.93 142.209 425.085 245.204 360.925 C 246.287 394.023 213.164 425.648 197.663 455.194 L 309.953 455.194 C 293.071 426.477 254.452 394.013 252.931 360.823 C 360.062 421.817 482.001 316.275 362.268 193.55 C 299.785 126.151 260.564 73.71 245.821 55.88 C 232.891 73.261 198.521 124.37 134.548 193.55 L 134.54 193.55 Z" style="stroke: rgb(153, 0, 0); stroke-width: 50px; stroke-miterlimit: 8; paint-order: stroke; fill: rgb(153, 0, 0);"/>
  <path fill-rule="evenodd" d="M 163.524 229.29 C 70.48 329.699 170.937 397.549 245.308 348.763 C 246.358 372.814 222.527 396.5 211.491 418.31 L 293.13 416.001 C 280.629 395.46 252.295 372.639 250.927 348.528 C 329.295 390.693 417.114 311.414 329.089 224.607 C 283.128 176.868 254.198 139.527 243.337 126.862 C 234.076 139.77 209.492 177.654 163.53 229.29 L 163.524 229.29 Z" style="fill: rgb(255, 204, 0); stroke: rgb(153, 0, 0); stroke-miterlimit: 8; paint-order: stroke; stroke-width: 0px;"/>
</svg>