<svg xmlns="http://www.w3.org/2000/svg" xmlns:xlink="http://www.w3.org/1999/xlink" width="100" height="100" viewBox="0 0 100 100"><defs><clipPath id="b"><rect width="100" height="100"/></clipPath></defs><g id="a" clip-path="url(#b)"><path d="M-73,100a49.689,49.689,0,0,1-19.463-3.929,49.834,49.834,0,0,1-15.893-10.715,49.833,49.833,0,0,1-10.715-15.893A49.686,49.686,0,0,1-123,50a49.688,49.688,0,0,1,3.929-19.463,49.833,49.833,0,0,1,10.715-15.893A49.833,49.833,0,0,1-92.462,3.929,49.688,49.688,0,0,1-73,0h.257A43.6,43.6,0,0,0-116,43.5,43.549,43.549,0,0,0-72.5,87,43.55,43.55,0,0,0-29,43.5,43.272,43.272,0,0,0-65.639.538,49.985,49.985,0,0,1-35.274,17.187a49.824,49.824,0,0,1,9,14.991A49.8,49.8,0,0,1-23,50,49.686,49.686,0,0,1-26.93,69.462,49.833,49.833,0,0,1-37.645,85.355,49.833,49.833,0,0,1-53.538,96.071,49.686,49.686,0,0,1-73,100Z" transform="translate(123)" fill="#ff6565"/><path d="M-84,78a38.757,38.757,0,0,1-15.181-3.065,38.87,38.87,0,0,1-12.4-8.358,38.87,38.87,0,0,1-8.358-12.4A38.757,38.757,0,0,1-123,39a38.755,38.755,0,0,1,3.065-15.18,38.869,38.869,0,0,1,8.358-12.4,38.87,38.87,0,0,1,12.4-8.358A38.757,38.757,0,0,1-84,0h.262A32.581,32.581,0,0,0-116,32.5,32.537,32.537,0,0,0-83.5,65,32.537,32.537,0,0,0-51,32.5,32.34,32.34,0,0,0-78.318.411,38.983,38.983,0,0,1-54.592,13.384a38.862,38.862,0,0,1,7.036,11.7A38.842,38.842,0,0,1-45,39a38.757,38.757,0,0,1-3.065,15.181,38.87,38.87,0,0,1-8.358,12.4,38.869,38.869,0,0,1-12.4,8.358A38.755,38.755,0,0,1-84,78Z" transform="translate(134)" fill="#ff6565"/><path d="M-95.5,55a27.328,27.328,0,0,1-10.7-2.161,27.41,27.41,0,0,1-8.741-5.893,27.409,27.409,0,0,1-5.894-8.741A27.326,27.326,0,0,1-123,27.5a27.331,27.331,0,0,1,7.976-19.367,27.415,27.415,0,0,1,8.664-5.906A27.315,27.315,0,0,1-95.74,0C-109.117.119-120,10.211-120,22.5-120,34.907-109.009,45-95.5,45S-71,34.907-71,22.5C-71,10.325-81.781.233-95.033,0A27.306,27.306,0,0,1-84.64,2.227a27.414,27.414,0,0,1,8.664,5.906A27.331,27.331,0,0,1-68,27.5a27.327,27.327,0,0,1-2.161,10.7,27.408,27.408,0,0,1-5.893,8.741A27.408,27.408,0,0,1-84.8,52.839,27.327,27.327,0,0,1-95.5,55Z" transform="translate(146)" fill="#ff6565"/></g></svg>