<svg width="100" height="100" viewBox="0 0 100 100" fill="none" xmlns="http://www.w3.org/2000/svg">
<g clip-path="url(#clip0_46_2)">
<rect x="1.5" y="1.5" width="97" height="97" rx="4.5" stroke="white" stroke-width="3"/>
<path d="M59 36V24H22L39.5263 49.8462L22 72H59V60" stroke="white" stroke-width="2"/>
<path d="M68.12 54L68.216 53.064C69.208 52.984 69.824 52.784 70.064 52.464L73.4 48.072L69.944 43.368C69.656 42.968 69.16 42.72 68.456 42.624L68.528 41.856H74.072L73.952 42.624C73.328 42.672 72.808 42.848 72.392 43.152L74.792 46.44L77.144 43.344C76.6 42.928 76.024 42.688 75.416 42.624L75.488 41.856H80.696L80.576 42.624C79.648 42.736 79.032 42.992 78.728 43.392L75.584 47.52L79.184 52.416C79.424 52.752 79.936 52.96 80.72 53.04L80.6 54H75.008L75.104 53.064C75.904 52.984 76.448 52.84 76.736 52.632L74.192 49.152L71.6 52.56C71.92 52.816 72.496 52.984 73.328 53.064L73.256 54H68.12Z" fill="white"/>
<path d="M28.792 81.984C28.792 81.5573 28.7013 81.2693 28.52 81.12C28.3493 80.96 28.04 80.8693 27.592 80.848L27.64 80.336C28.0773 80.2613 28.84 80.064 29.928 79.744L30.264 79.92V86.944C30.552 87.1573 30.952 87.312 31.464 87.408L31.4 88H27.592L27.656 87.376C28.1147 87.3013 28.4933 87.1573 28.792 86.944V81.984ZM30.344 77.52C30.344 78.1813 30.04 78.512 29.432 78.512C28.8347 78.512 28.536 78.1813 28.536 77.52C28.536 76.848 28.8347 76.512 29.432 76.512C30.04 76.512 30.344 76.848 30.344 77.52ZM36.9001 85.12V84.208H43.4761V85.12H36.9001ZM36.9001 82.656V81.744H43.4761V82.656H36.9001ZM51.4578 86.144C51.7884 86.88 52.4178 87.248 53.3458 87.248C54.2738 87.248 54.9031 86.88 55.2338 86.144C55.5644 85.408 55.7298 84.304 55.7298 82.832C55.7298 81.3493 55.5644 80.2453 55.2338 79.52C54.9031 78.784 54.2738 78.416 53.3458 78.416C52.4178 78.416 51.7884 78.784 51.4578 79.52C51.1271 80.2453 50.9618 81.3493 50.9618 82.832C50.9618 84.304 51.1271 85.408 51.4578 86.144ZM56.3058 86.704C55.6444 87.632 54.6578 88.096 53.3458 88.096C52.0338 88.096 51.0471 87.632 50.3858 86.704C49.7244 85.7653 49.3938 84.4693 49.3938 82.816C49.3938 81.1627 49.7244 79.8773 50.3858 78.96C51.0471 78.032 52.0338 77.568 53.3458 77.568C54.6578 77.568 55.6444 78.032 56.3058 78.96C56.9671 79.8773 57.2978 81.1627 57.2978 82.816C57.2978 84.4693 56.9671 85.7653 56.3058 86.704Z" fill="white"/>
<path d="M36.728 13.016C36.728 12.5893 36.6373 12.3013 36.456 12.152C36.2853 11.992 35.976 11.9013 35.528 11.88L35.576 11.368C35.8107 11.3253 36.5147 11.1333 37.688 10.792L37.992 10.952L38.152 12.024C38.7493 11.2027 39.4853 10.792 40.36 10.792C41.2347 10.792 41.9067 11.0053 42.376 11.432C42.8453 11.848 43.08 12.4293 43.08 13.176V17.944C43.3467 18.1467 43.7467 18.3013 44.28 18.408L44.216 19H40.424L40.472 18.408C40.8987 18.344 41.2773 18.1893 41.608 17.944V13.336C41.608 12.1947 41.1173 11.624 40.136 11.624C39.7413 11.624 39.3627 11.7573 39 12.024C38.6373 12.2907 38.3707 12.6373 38.2 13.064V17.944C38.488 18.1573 38.888 18.312 39.4 18.408L39.336 19H35.528L35.592 18.376C36.0507 18.3013 36.4293 18.1573 36.728 17.944V13.016Z" fill="white"/>
</g>
<defs>
<clipPath id="clip0_46_2">
<rect width="100" height="100" fill="white"/>
</clipPath>
</defs>
</svg>
